<svg id="Layer_1" data-name="Layer 1" xmlns="http://www.w3.org/2000/svg" viewBox="0 0 222.9 320.7"><defs><style>.cls-1{fill:#cd9700;}.cls-2{fill:#fff;}.cls-3{fill:#003764;}.cls-4{fill:#002b5c;}.cls-5{fill:#b2b3b2;}</style></defs><title>armada_logo</title><polygon class="cls-1" points="222.8 19.2 111.4 0 0 19.2 0 180.9 56.4 278.1 67.6 262.5 77.6 271.2 111.4 320.7 145.4 271.3 155.3 262.6 166.6 278.1 222.9 181.2 222.8 19.2 222.8 19.2"/><polygon class="cls-2" points="210 30.1 111.4 13 12.9 30.1 12.9 177.5 57.6 254.4 65.5 243.5 87.3 262.5 111.4 297.9 135.7 262.6 157.5 243.6 165.4 254.5 210 177.7 210 30.1 210 30.1"/><polygon class="cls-3" points="111.4 20.2 111.4 20.2 19.9 36 19.9 175.6 58.2 241.6 64.3 233.2 92.6 257.8 111.5 285.5 111.4 20.2 111.4 20.2"/><polygon class="cls-4" points="202.9 36 111.4 20.2 111.5 285.5 130.4 257.9 158.7 233.3 164.7 241.7 203 175.8 202.9 36 202.9 36"/><path class="cls-2" d="M180,164.2l-3.2-1.3-3.8-8.4,7-9.7,7,9.7-3.7,8.4-3.2,1.3Zm31.2,62.6,9.5,4.1-28.2,17.4-6.9-9.8s4.6-55.5,5.6-65.5a27.5,27.5,0,0,1,5.4-2.5l11.7,4.1-3.7,17.7,16.6-15.9-8.5-4.8,12,1.2,4.4-4.2-16-2,20.8-2.8L244.7,153l-53.3,8.9-2.4,1.6,5-10.6L180,137l-12.9,15.8,4.3,10.5-2.3-1.5L115.8,153l10.9,10.8,20.8,2.8-16,2,4.4,4.2,12-1.2-8.5,4.8L156,192.3l-3.7-17.7,11.7-4.1a27.2,27.2,0,0,1,5.1,2.3c1,9.4,5.6,65.7,5.6,65.7l-6.9,9.8-28.3-17.5,9.4-4.1-43.2-20.3L127.5,244l4.1-5.7L166.8,269,180,288.3,193.3,269l35.2-30.7,4.1,5.7,21.8-37.6-43.2,20.3Z" transform="translate(-68.6 -19.7)"/><polygon class="cls-5" points="158.3 212.1 163.9 219.2 180.3 191.5 158.3 212.1 158.3 212.1"/><polygon class="cls-5" points="114.2 249.5 114.2 258.6 122.4 246.8 136.8 234.1 114.2 249.5 114.2 249.5"/><polygon class="cls-5" points="127.5 143.5 169 136.8 165.2 140 127.5 143.5 127.5 143.5"/><polygon class="cls-5" points="141.7 155.7 138.5 167.8 144.5 156.6 141.7 155.7 141.7 155.7"/><path class="cls-5" d="M176.8,162.9l-3.7-8.4,6.9-9.7V137l-12.9,15.8,4.3,10.5-2.3-1.5L115.8,153l10.9,10.8,20.8,2.8-16,2,4.4,4.2,12-1.2-8.5,4.8L156,192.3l-3.7-17.7,11.7-4.1a28.4,28.4,0,0,1,5.1,2.3c1,9.4,5.6,65.7,5.6,65.7l-6.9,9.8-28.3-17.5,9.4-4.2-43.2-20.3L127.4,244l4.1-5.7L166.8,269,180,288.3V164.2l-3.2-1.3Z" transform="translate(-68.6 -19.7)"/><polygon class="cls-2" points="81.8 155.7 84.9 167.8 78.9 156.6 81.8 155.7 81.8 155.7"/><polygon class="cls-2" points="95.9 143.5 54.4 136.8 58.3 140 95.9 143.5 95.9 143.5"/><polygon class="cls-2" points="64.7 212.1 59.1 219.2 42.7 191.5 64.7 212.1 64.7 212.1"/><polygon class="cls-2" points="108.7 249.5 108.7 258.6 100.5 246.8 86.1 234.1 108.7 249.5 108.7 249.5"/><polygon class="cls-2" points="43.7 102 47.5 102 47.5 103.2 45 103.2 45 105.9 47.2 105.9 47.2 107.1 45 107.1 45 110.9 43.7 110.9 43.7 102 43.7 102"/><path class="cls-2" d="M125.6,128.4a.8.8,0,0,0,.9.9.8.8,0,0,0,.9-.9v-4.7a.8.8,0,0,0-.9-.9.8.8,0,0,0-.9.9v4.7Zm-1.3-4.7a2.1,2.1,0,1,1,4.3,0v4.7a2.1,2.1,0,1,1-4.3,0v-4.7Z" transform="translate(-68.6 -19.7)"/><path class="cls-2" d="M137.1,128.4a.9.9,0,1,0,1.7,0v-4.7a.9.9,0,1,0-1.7,0v4.7Zm-1.3-4.7a2.1,2.1,0,1,1,4.3,0v4.7a2.1,2.1,0,1,1-4.3,0v-4.7Z" transform="translate(-68.6 -19.7)"/><polygon class="cls-2" points="80.3 103.2 78.8 103.2 78.8 102 83 102 83 103.2 81.6 103.2 81.6 110.9 80.3 110.9 80.3 103.2 80.3 103.2"/><path class="cls-2" d="M160,129.3h.6c1,0,1.1-.6,1.1-1.5s-.2-1.3-1.1-1.3H160v2.8Zm0-4h.6c.8,0,1.1-.4,1.1-1.2s-.3-1.2-1.1-1.2H160v2.5Zm-1.3-3.7h1.9a2.1,2.1,0,0,1,2.3,2.3v.3a1.6,1.6,0,0,1-.9,1.7,1.7,1.7,0,0,1,.9,1.8v.5a2.1,2.1,0,0,1-2.4,2.4h-1.7v-8.9Z" transform="translate(-68.6 -19.7)"/><path class="cls-2" d="M172.7,124.2h0l-.6,3.2h1.3l-.6-3.2Zm-.5-2.6h1.1l2,8.9H174l-.4-1.9h-1.7l-.4,1.9h-1.3l2-8.9Z" transform="translate(-68.6 -19.7)"/><polygon class="cls-2" points="113.9 102 115.2 102 115.2 109.6 117.7 109.6 117.7 110.9 113.9 110.9 113.9 102 113.9 102"/><polygon class="cls-2" points="125.1 102 126.4 102 126.4 109.6 128.9 109.6 128.9 110.9 125.1 110.9 125.1 102 125.1 102"/><path class="cls-2" d="M214.9,128.5a2.1,2.1,0,0,1-2,2.1,1.9,1.9,0,0,1-2.1-2.1v-4.9a2,2,0,0,1,2.1-2.1,2,2,0,0,1,2.1,2.1v.5h-1.3v-.4a.8.8,0,0,0-.8-.9c-.6,0-.8.4-.8,1v4.6c0,.5.2.9.8.9a.8.8,0,0,0,.8-.9V128h1.3v.6Z" transform="translate(-68.6 -19.7)"/><polygon class="cls-2" points="153.1 102 154.3 102 154.3 109.6 156.9 109.6 156.9 110.9 153.1 110.9 153.1 102 153.1 102"/><path class="cls-2" d="M236.6,128.5a2.1,2.1,0,1,1-4.1,0v-6.9h1.3v6.8c0,.6.3.9.8.9s.8-.3.8-.9v-6.8h1.3v6.9Z" transform="translate(-68.6 -19.7)"/><path class="cls-2" d="M244.8,129.3h.6c1,0,1.1-.6,1.1-1.5s-.2-1.3-1.1-1.3h-.6v2.8Zm0-4h.6c.8,0,1.1-.4,1.1-1.2s-.3-1.2-1.1-1.2h-.5v2.5Zm-1.3-3.7h1.9a2.1,2.1,0,0,1,2.3,2.3v.3a1.6,1.6,0,0,1-.9,1.7,1.7,1.7,0,0,1,.9,1.8v.5a2.1,2.1,0,0,1-2.4,2.4h-1.7v-8.9Z" transform="translate(-68.6 -19.7)"/><path class="cls-2" d="M110.8,66.4a2.1,2.1,0,0,1-2.2,2.2,2.2,2.2,0,0,1-1.7-.8l1-.8a1.1,1.1,0,0,0,.7.3c.3,0,.9-.2.9-1.1V59.6h1.3v6.8Z" transform="translate(-68.6 -19.7)"/><path class="cls-2" d="M122,62.2h0l-.6,3.2h1.3l-.6-3.2Zm-.5-2.6h1.1l2,9h-1.3l-.4-1.9h-1.7l-.4,1.9h-1.3l2-9Z" transform="translate(-68.6 -19.7)"/><path class="cls-2" d="M137.3,66.6a2.1,2.1,0,0,1-2,2.1,2,2,0,0,1-2.1-2.1V61.6a2,2,0,0,1,2.1-2.1,2,2,0,0,1,2.1,2.1v.5H136v-.4a.8.8,0,0,0-.8-.9c-.6,0-.8.4-.8,1v4.6c0,.5.2.9.8.9a.8.8,0,0,0,.8-.9V66h1.3v.6Z" transform="translate(-68.6 -19.7)"/><polygon class="cls-2" points="77.2 39.9 78.5 39.9 78.5 44 78.5 44 80.4 39.9 81.7 39.9 79.9 43.5 82 48.9 80.6 48.9 79.2 44.9 78.5 46.2 78.5 48.9 77.2 48.9 77.2 39.9 77.2 39.9"/><path class="cls-2" d="M163.3,62.2H162v-.3c0-.6-.2-1.1-.9-1.1s-.9.6-.9,1.2.1.9.7,1.2l1,.4c1.1.4,1.3,1.1,1.3,2.5s-.6,2.6-2.2,2.6a2.1,2.1,0,0,1-2.2-2.1V66h1.3v.4a.8.8,0,0,0,.9.9c.9,0,.9-.5.9-1.3s-.1-1.1-.7-1.4l-.9-.4A2.1,2.1,0,0,1,159,62a2.2,2.2,0,0,1,2.2-2.5,2.1,2.1,0,0,1,2.1,2v.6Z" transform="translate(-68.6 -19.7)"/><path class="cls-2" d="M172.9,66.4a.9.9,0,1,0,1.7,0V61.7a.9.9,0,1,0-1.7,0v4.7Zm-1.3-4.7a2.2,2.2,0,1,1,4.3,0v4.7a2.2,2.2,0,1,1-4.3,0V61.7Z" transform="translate(-68.6 -19.7)"/><polygon class="cls-2" points="115.6 39.9 116.8 39.9 118.7 45.3 118.8 45.3 118.8 39.9 120 39.9 120 48.9 118.8 48.9 116.9 43.5 116.8 43.5 116.8 48.9 115.6 48.9 115.6 39.9 115.6 39.9"/><polygon class="cls-2" points="131.4 48.9 130.3 48.9 128.5 39.9 129.9 39.9 130.9 46.2 130.9 46.2 131.9 39.9 133.3 39.9 131.4 48.9 131.4 48.9"/><polygon class="cls-2" points="142.1 39.9 143.4 39.9 143.4 48.9 142.1 48.9 142.1 39.9 142.1 39.9"/><polygon class="cls-2" points="153.3 39.9 154.6 39.9 154.6 47.6 157.2 47.6 157.2 48.9 153.3 48.9 153.3 39.9 153.3 39.9"/><polygon class="cls-2" points="167 39.9 168.3 39.9 168.3 47.6 170.8 47.6 170.8 48.9 167 48.9 167 39.9 167 39.9"/><polygon class="cls-2" points="180.6 39.9 184.5 39.9 184.5 41.1 181.9 41.1 181.9 43.8 184.1 43.8 184.1 45 181.9 45 181.9 47.6 184.5 47.6 184.5 48.9 180.6 48.9 180.6 39.9 180.6 39.9"/><path class="cls-1" d="M248.9,87.7V85h2.5l2.5,2.7ZM227,105.4h-5.2V85h2.3l2.9,2.9v17.6ZM199.2,87.7h-4.9l2.6-2.7h2.3v2.7Zm-60.3,0h-5.2V85h5.2v2.7Zm-27.8,0h-4.9l2.7-2.7H111v2.7ZM256.8,72.4H236.4v6.7l-6.6-6.7H191.2l-7,7.1V72.4H173.6l-7,11.6-6.9-11.6H149v2.3l-2.2-2.3H103.1l-9.7,9.8v60l12.4-20.8V100.2h5.5v17.8h22.3V100.2h2.5l3,3v14.8h22.3V97.4l2,3h6.8l1.8-3V118h22V100.2h5.5v17.8h35.5l1.5-1.5v1.5h12.3V100.2h5.5v21.4l12.4,20.8V82.3l-9.7-9.8Z" transform="translate(-68.6 -19.7)"/><path class="cls-5" d="M113.8,82.2v8.2H103.2V86.8l4.5-4.5ZM95.9,83.3V133l7.2-12.1V97.6h10.6v17.8H121V75H104.2l-8.3,8.3Z" transform="translate(-68.6 -19.7)"/><path class="cls-5" d="M141.6,82.2v8.2H131V82.2ZM123.7,75v40.4H131V97.6h6.1l2.2,2.2,2.3,2.3v13.3h7.2V98.6l-2.1-2.1,2.1-2.1V78.2L145.7,75Z" transform="translate(-68.6 -19.7)"/><polygon class="cls-5" points="98.1 69.3 89.8 55.3 83 55.3 83 95.7 90.2 95.7 90.2 68.8 95.4 78.2 100.9 78.2 105.9 68.9 105.9 95.7 113.1 95.7 113.1 55.3 106.5 55.3 98.1 69.3 98.1 69.3"/><path class="cls-5" d="M201.9,82.2v8.2H191.3V86.8l4.5-4.5Zm-17.9,1.1v32.1h7.2V97.6h10.6v17.8h7.2V75H192.3l-8.3,8.3Z" transform="translate(-68.6 -19.7)"/><path class="cls-5" d="M225.2,82.2l4.5,4.5v21.4H219.1V82.2ZM211.9,75v40.4h21.9l3.1-3.1v-29L228.7,75Z" transform="translate(-68.6 -19.7)"/><path class="cls-5" d="M246.2,82.2h6.2l4.5,4.5v3.6H246.2V82.2Zm9.6-7.2H238.9v40.4h7.2V97.6h10.6v23.2L264,133V83.3L255.8,75Z" transform="translate(-68.6 -19.7)"/><path class="cls-2" d="M114.8,91.4V81.2h-7.7l-5.1,5.2v5.1ZM97,129.2V83.8l7.6-7.7h15.3v38.3h-5.1V96.6H102.1v24L97,129.2Z" transform="translate(-68.6 -19.7)"/><path class="cls-2" d="M142.7,91.4V81.2H129.9V91.4Zm0,22.9V101.7l-2.6-2.6-2.6-2.5h-7.6v17.8h-5.1V76h20.4l2.5,2.6V94l-2.5,2.6,2.5,2.5v15.2Z" transform="translate(-68.6 -19.7)"/><polygon class="cls-2" points="84 94.7 84 56.4 89.2 56.4 98.1 71.3 107.1 56.4 112.1 56.4 112.1 94.7 107 94.7 107 64.7 100.3 77.1 96 77.1 89.2 64.7 89.2 94.7 84 94.7 84 94.7"/><path class="cls-2" d="M203,91.4V81.2h-7.7l-5.1,5.2v5.1Zm-17.9,22.9V83.8l7.6-7.7h15.3v38.3H203V96.6H190.2v17.8Z" transform="translate(-68.6 -19.7)"/><path class="cls-2" d="M230.8,86.3l-5.1-5.1H218v28h12.8V86.3Zm5.1,25.5-2.5,2.5H212.9V76h15.3l7.6,7.7v28.1Z" transform="translate(-68.6 -19.7)"/><path class="cls-2" d="M257.8,91.4V86.3L253,81.2h-7.9V91.4Zm0,29.1v-24H245.1v17.8H240V76h15.3l7.6,7.7v45.4l-5.1-8.6Z" transform="translate(-68.6 -19.7)"/></svg>