<?xml version="1.0" encoding="utf-8"?>
<!-- Generator: Adobe Illustrator 22.1.0, SVG Export Plug-In . SVG Version: 6.00 Build 0)  -->
<svg version="1.1" id="Layer_1" xmlns="http://www.w3.org/2000/svg" xmlns:xlink="http://www.w3.org/1999/xlink" x="0px" y="0px"
	 viewBox="0 0 494 296" style="enable-background:new 0 0 494 296;" xml:space="preserve">
<style type="text/css">
	.st0{fill:#FFFFFF;}
	.st1{fill:none;}
</style>
<g>
	<path class="st0" d="M45.5,278.1c-1.7,0-3.3-0.2-4.7-0.5c-1.4-0.4-2.6-0.8-3.8-1.4c-1.1-0.6-2.1-1.3-3-2.1s-1.7-1.6-2.4-2.5v5.6
		H15.5v-61.7h16.2l-0.1,22.1c0.8-1,1.6-1.9,2.5-2.7c0.9-0.8,1.9-1.6,3-2.2c1.1-0.6,2.3-1.2,3.7-1.6c1.4-0.4,2.9-0.6,4.6-0.6
		c2.7,0,5.3,0.5,7.7,1.6c2.5,1.1,4.6,2.7,6.5,4.7c1.9,2,3.3,4.5,4.4,7.4c1.1,2.9,1.6,6.2,1.6,9.9v0.2c0,3.7-0.5,7.1-1.6,10
		c-1.1,3-2.6,5.5-4.4,7.5c-1.8,2.1-4,3.6-6.4,4.7C50.8,277.6,48.2,278.1,45.5,278.1z M40.5,264.7c2.6,0,4.9-1,6.7-2.9
		c1.8-1.9,2.7-4.4,2.7-7.5v-0.2c0-3-0.9-5.5-2.7-7.4c-1.8-1.9-4-2.9-6.7-2.9c-1.3,0-2.5,0.3-3.6,0.8c-1.1,0.5-2.1,1.2-2.9,2.2
		c-0.8,0.9-1.5,2-2,3.3c-0.5,1.2-0.7,2.6-0.7,4.1v0.2c0,1.5,0.2,2.9,0.7,4.2s1.1,2.4,2,3.3c0.8,0.9,1.8,1.6,2.9,2.2
		C38,264.4,39.3,264.7,40.5,264.7z"/>
	<path class="st0" d="M70.9,231.4h16.2v9.2c1.3-3.1,3.1-5.6,5.3-7.4c2.3-1.9,5.3-2.7,9.1-2.5v16.9h-1.4c-4.2,0-7.5,1.2-9.7,3.7
		c-2.3,2.5-3.4,6.4-3.4,11.7v14.2H70.9V231.4z"/>
	<path class="st0" d="M128.9,278.2c-3.7,0-7-0.6-10.1-1.9c-3.1-1.2-5.7-2.9-8-5.1c-2.3-2.2-4-4.7-5.2-7.6c-1.2-2.9-1.9-5.9-1.9-9.2
		v-0.2c0-3.3,0.6-6.4,1.9-9.3c1.3-2.9,3-5.4,5.3-7.6c2.3-2.2,4.9-3.9,8-5.2c3.1-1.3,6.5-1.9,10.1-1.9c3.7,0,7,0.6,10.1,1.9
		c3.1,1.3,5.7,3,8,5.1c2.3,2.1,4,4.7,5.2,7.5c1.2,2.9,1.9,6,1.9,9.2v0.2c0,3.3-0.6,6.4-1.9,9.3c-1.3,2.9-3,5.4-5.3,7.6
		c-2.3,2.2-4.9,3.9-8,5.2C135.9,277.6,132.5,278.2,128.9,278.2z M129.1,264.5c1.5,0,2.8-0.3,4-0.8s2.2-1.3,3-2.2
		c0.8-0.9,1.5-2,1.9-3.2c0.5-1.2,0.7-2.5,0.7-3.9v-0.2c0-1.4-0.2-2.7-0.7-3.9c-0.5-1.2-1.2-2.3-2-3.2c-0.9-0.9-1.9-1.7-3.1-2.2
		s-2.5-0.8-3.9-0.8c-1.5,0-2.8,0.3-4,0.8c-1.2,0.5-2.2,1.3-3,2.2c-0.8,0.9-1.5,2-1.9,3.2c-0.5,1.2-0.7,2.5-0.7,3.9v0.2
		c0,1.4,0.2,2.7,0.7,3.9c0.5,1.2,1.2,2.3,2,3.2c0.9,0.9,1.9,1.7,3.1,2.2C126.3,264.2,127.6,264.5,129.1,264.5z"/>
	<path class="st0" d="M159.4,215.4h16.2v31.3l12.4-15.3h18.2l-15.9,18.4l16.3,27.4h-17.7l-9.2-15.6l-4.1,4.8v10.7h-16.2V215.4z"/>
	<path class="st0" d="M231.4,278.2c-3.6,0-6.9-0.6-9.9-1.7c-3-1.2-5.6-2.8-7.7-4.8c-2.2-2.1-3.9-4.6-5.1-7.5
		c-1.2-2.9-1.8-6.2-1.8-9.7v-0.2c0-3.3,0.6-6.4,1.7-9.3c1.1-2.9,2.7-5.4,4.8-7.6c2.1-2.2,4.5-3.9,7.3-5.1c2.8-1.2,5.9-1.9,9.3-1.9
		c3.9,0,7.4,0.7,10.3,2c2.9,1.4,5.3,3.2,7.2,5.5c1.9,2.3,3.3,4.9,4.2,8c0.9,3,1.4,6.2,1.4,9.6c0,0.5,0,1,0,1.6c0,0.6,0,1.1-0.1,1.7
		h-30.6c0.6,2.5,1.8,4.4,3.5,5.7c1.7,1.2,3.8,1.9,6.4,1.9c1.9,0,3.7-0.4,5.3-1.1c1.6-0.7,3.2-1.9,4.9-3.6l8.9,7.4
		c-2.2,2.8-4.9,5.1-8.2,6.8C239.9,277.4,236,278.2,231.4,278.2z M238,250.5c-0.3-2.5-1.1-4.6-2.5-6c-1.4-1.5-3.2-2.2-5.4-2.2
		c-2.1,0-3.9,0.7-5.2,2.2c-1.4,1.5-2.3,3.5-2.7,6H238z"/>
	<path class="st0" d="M258.2,231.4h16.2v9.2c1.3-3.1,3.1-5.6,5.3-7.4c2.3-1.9,5.3-2.7,9.1-2.5v16.9h-1.4c-4.2,0-7.5,1.2-9.7,3.7
		c-2.3,2.5-3.4,6.4-3.4,11.7v14.2h-16.2V231.4z"/>
	<path class="st0" d="M332.9,278.1c-4.9,0-8.7-1.2-11.4-3.5c-2.7-2.3-4.1-6.2-4.1-11.7v-18.6H312v-12.9h5.4v-11.6h16.2v11.6h10.7
		v12.9h-10.7v15.5c0,1.6,0.4,2.8,1.1,3.5c0.7,0.7,1.8,1.1,3.3,1.1c1.1,0,2.1-0.1,3.1-0.4c1-0.3,2-0.6,3-1.1v12.6
		c-1.5,0.8-3.1,1.4-5,1.9C337.2,277.8,335.1,278.1,332.9,278.1z"/>
	<path class="st0" d="M349.5,231.4h16.2v9.2c1.3-3.1,3.1-5.6,5.3-7.4c2.3-1.9,5.3-2.7,9.1-2.5v16.9h-1.4c-4.2,0-7.5,1.2-9.7,3.7
		c-2.3,2.5-3.4,6.4-3.4,11.7v14.2h-16.2V231.4z"/>
	<path class="st0" d="M397.2,278.1c-2.2,0-4.2-0.3-6.1-0.9c-1.9-0.6-3.5-1.5-4.9-2.7c-1.4-1.2-2.5-2.6-3.3-4.4
		c-0.8-1.7-1.2-3.8-1.2-6.1v-0.2c0-2.4,0.4-4.5,1.3-6.3c0.9-1.8,2.1-3.3,3.6-4.5c1.6-1.2,3.4-2.1,5.6-2.7c2.2-0.6,4.7-0.9,7.4-0.9
		c2.1,0,4.2,0.2,6.1,0.5c1.9,0.4,3.6,0.8,4.9,1.2v-0.8c0-2.4-0.7-4.2-2.2-5.5c-1.5-1.3-3.8-1.9-6.9-1.9c-2.4,0-4.6,0.2-6.6,0.7
		c-2,0.5-4,1.1-6,1.9l-3.3-11.3c2.6-1.1,5.3-1.9,8.2-2.6c2.9-0.6,6.3-1,10.3-1c4.1,0,7.6,0.5,10.4,1.4c2.8,1,5.2,2.3,7,4.1
		c1.7,1.7,3,3.7,3.8,6.1c0.8,2.4,1.1,5.2,1.1,8.4v26.3h-15.9v-4.7c-1.6,1.7-3.5,3.1-5.6,4.2C402.8,277.6,400.2,278.1,397.2,278.1z
		 M402.9,268.1c2.4,0,4.3-0.7,5.8-2c1.5-1.4,2.2-3.2,2.2-5.5v-2.1c-0.8-0.3-1.7-0.6-2.8-0.8s-2.2-0.3-3.4-0.3
		c-2.4,0-4.2,0.5-5.5,1.6c-1.3,1-1.9,2.4-1.9,4.1v0.2c0,1.6,0.5,2.8,1.6,3.7C399.9,267.6,401.3,268.1,402.9,268.1z"/>
	<path class="st0" d="M455.2,278.2c-3.4,0-6.6-0.6-9.6-1.9c-2.9-1.3-5.5-3-7.6-5.1c-2.1-2.1-3.8-4.7-5-7.6c-1.2-2.9-1.8-6-1.8-9.2
		v-0.2c0-3.2,0.6-6.3,1.8-9.2c1.2-2.9,2.9-5.4,5-7.6c2.1-2.2,4.7-3.9,7.7-5.2c3-1.3,6.3-1.9,9.9-1.9c4.7,0,8.7,0.9,11.8,2.8
		c3.2,1.9,5.7,4.3,7.7,7.4l-10.9,8.1c-1.1-1.5-2.3-2.7-3.6-3.6c-1.3-0.8-2.9-1.3-4.9-1.3c-1.3,0-2.5,0.3-3.6,0.8
		c-1.1,0.5-2,1.3-2.8,2.2c-0.8,0.9-1.4,2-1.9,3.2c-0.5,1.2-0.7,2.5-0.7,3.9v0.2c0,1.5,0.2,2.8,0.7,4.1c0.5,1.3,1.1,2.4,1.9,3.3
		c0.8,0.9,1.7,1.7,2.9,2.2c1.1,0.5,2.4,0.8,3.7,0.8c1.9,0,3.5-0.4,4.9-1.3c1.3-0.8,2.6-2,3.9-3.5l10.7,7.8c-2.1,3.2-4.8,5.7-8,7.6
		S460.2,278.2,455.2,278.2z"/>
</g>
<path class="st1" d="M291.1,77.6c-0.3-1.3-0.9-2.5-1.9-3.5L264,48.5l25.2,25.6C290.2,75.1,290.8,76.3,291.1,77.6z"/>
<path class="st1" d="M291.3,78.7c0,0.5,0,0.9-0.1,1.4C291.2,79.6,291.3,79.1,291.3,78.7C291.3,78.7,291.3,78.7,291.3,78.7
	C291.3,78.7,291.3,78.7,291.3,78.7c-0.1-0.6-0.2-1.1-0.4-1.7C291,77.6,291.2,78.1,291.3,78.7z"/>
<path class="st1" d="M219.3,94.7c0.6-0.7,1.4-1.1,2.2-1.5C220.7,93.5,220,94,219.3,94.7c-2.6,2.6-2.5,6.8,0.1,9.4l14,13.7l-14-13.7
	C216.8,101.5,216.8,97.3,219.3,94.7z"/>
<path class="st1" d="M201.5,97.4c3.9,0,7,3.1,7,7v0C208.5,100.5,205.3,97.4,201.5,97.4l-4.9,0l0,0H201.5z"/>
<path class="st1" d="M244,109.5l14.8-14.3L244,109.5l-15.3-15c-1.3-1.3-3-1.9-4.7-1.9c1.7,0,3.4,0.6,4.7,1.9L244,109.5z"/>
<path class="st1" d="M177.3,101.9c0-0.3,0-0.6,0-1C177.3,101.2,177.3,101.5,177.3,101.9z"/>
<path class="st1" d="M194.5,143.7c0,1.2,0.2,2.4,0.5,3.6C194.7,146.1,194.5,144.9,194.5,143.7L194.5,143.7z"/>
<path class="st1" d="M221.8,93.1c0.7-0.3,1.5-0.4,2.2-0.4C223.2,92.7,222.5,92.8,221.8,93.1z"/>
<path class="st1" d="M241.4,124.9c-0.4-0.2-0.9-0.4-1.3-0.7C240.6,124.5,241,124.7,241.4,124.9z"/>
<polygon class="st1" points="244,48.1 226.2,66.6 244,48.1 275,79.6 275,79.6 "/>
<path class="st1" d="M242.7,31.2c-1.5,0.3-2.8,1-3.8,2l-36.7,38.2l36.7-38.2C239.9,32.2,241.3,31.5,242.7,31.2z"/>
<path class="st1" d="M281.6,85.5c-0.8-0.3-1.6-0.9-2.3-1.6l-1-1l1,1C280,84.6,280.7,85.1,281.6,85.5z"/>
<path class="st0" d="M330.6,100.3c0-48.4-39.2-87.6-87.6-87.6c-48.4,0-87.6,39.2-87.6,87.6c0,48.4,39.2,87.6,87.6,87.6
	c27.3,0,51.7-12.5,67.8-32.1H206.5c-3.3,0-6.3-1.4-8.5-3.5c-1.4-1.4-2.4-3.1-3-4.9c-0.4-1.1-0.5-2.3-0.5-3.6v0v-32.3h-7.1
	c-4,0-7.7-2.4-9.3-6.1c-0.5-1.1-0.7-2.2-0.8-3.4c0-0.3,0-0.6,0-1c0.1-2.4,1.1-4.8,2.8-6.6l22-22.9l36.7-38.2c1-1.1,2.4-1.8,3.8-2
	c0.4-0.1,0.8-0.1,1.2-0.1h0c1.9,0,3.7,0.8,5,2.1L264,48.5l25.2,25.6c1,1,1.6,2.2,1.9,3.5c0.1,0.3,0.1,0.7,0.1,1.1c0,0,0,0,0,0
	c0,0,0,0,0,0c0,0,0,0,0,0c0,0,0,0,0,0c0.2,2-0.4,4.1-2,5.6l-40.7,39.3c-1.3,1.2-3,1.9-4.6,1.9c-0.9,0-1.7-0.2-2.6-0.5
	c-0.4-0.2-0.9-0.4-1.3-0.7c-0.3-0.2-0.6-0.4-0.8-0.7l-5.9-5.8l-14-13.7c-2.6-2.6-2.7-6.8-0.1-9.4c0.6-0.7,1.4-1.1,2.2-1.5
	c0.1,0,0.2-0.1,0.3-0.1c0.7-0.3,1.5-0.4,2.2-0.4c0,0,0,0,0,0c1.7,0,3.4,0.6,4.7,1.9l15.3,15l14.8-14.3L275,79.6l0,0l0,0l-31-31.5
	l-17.8,18.5l-29.6,30.8h4.9c3.9,0,7,3.1,7,7v0v37.4h111.7c0,0,0,0,0,0h0C326.9,129.4,330.6,115.3,330.6,100.3z"/>
<path class="st0" d="M287,73.3c-0.5-0.2-1-0.3-1.5-0.4C286.1,73,286.6,73.1,287,73.3z M285,72.9c-0.1,0-0.2,0-0.2,0
	C284.8,72.8,284.9,72.8,285,72.9z M279.3,83.9c0.7,0.7,1.5,1.2,2.3,1.6C280.7,85.1,280,84.6,279.3,83.9l-1-1L279.3,83.9z"/>
<path class="st0" d="M221.5,93.2c0.1,0,0.2-0.1,0.3-0.1C221.7,93.1,221.6,93.1,221.5,93.2z"/>
<polygon class="st0" points="208.5,141.8 208.5,141.8 320.2,141.8 320.2,141.8 "/>
<path class="st0" d="M291.3,78.7c0-0.4-0.1-0.7-0.1-1.1C291.2,78,291.2,78.3,291.3,78.7C291.3,78.7,291.3,78.7,291.3,78.7z"/>
<path class="st0" d="M198,152.2c-1.4-1.4-2.4-3.1-3-4.9C195.6,149.2,196.6,150.9,198,152.2z"/>
<path class="st0" d="M224,92.7C224,92.7,224,92.7,224,92.7C224,92.7,224,92.7,224,92.7z"/>
<path class="st0" d="M233.4,117.8l5.9,5.8c0.3,0.3,0.5,0.5,0.8,0.7c-0.3-0.2-0.6-0.4-0.8-0.7L233.4,117.8z"/>
<path class="st0" d="M243.9,31.1c1.9,0,3.7,0.8,5,2.1L264,48.5l-15.1-15.3C247.6,31.8,245.8,31.1,243.9,31.1L243.9,31.1
	c-0.4,0-0.8,0-1.2,0.1C243.1,31.1,243.5,31.1,243.9,31.1L243.9,31.1z"/>
<path class="st0" d="M289.3,84.2l-40.7,39.3c-1.3,1.2-3,1.9-4.6,1.9c-0.9,0-1.7-0.2-2.6-0.5c0.8,0.3,1.7,0.5,2.6,0.5
	c1.7,0,3.3-0.6,4.6-1.9L289.3,84.2c1.6-1.5,2.2-3.6,2-5.6c0,0,0,0,0,0C291.5,80.7,290.8,82.7,289.3,84.2z"/>
<path class="st0" d="M202.1,71.4l-22,22.9c-1.8,1.8-2.7,4.2-2.8,6.6c0.1-2.4,1.1-4.8,2.8-6.6L202.1,71.4z"/>
<polygon class="st0" points="196.6,97.4 226.2,66.6 196.6,97.4 "/>
<polygon class="st0" points="275,79.6 275,79.6 275,79.6 258.8,95.2 275,79.6 "/>
<path class="st0" d="M187.4,111.4c-4,0-7.7-2.4-9.3-6.1c-0.5-1.1-0.7-2.2-0.8-3.4c0.1,1.1,0.3,2.3,0.8,3.4
	C179.7,108.9,183.3,111.4,187.4,111.4l7.1,0v0H187.4z"/>
</svg>
