<?xml version="1.0" encoding="utf-8"?>
<!-- Generator: Adobe Illustrator 22.1.0, SVG Export Plug-In . SVG Version: 6.00 Build 0)  -->
<svg version="1.1" id="Layer_1" xmlns="http://www.w3.org/2000/svg" xmlns:xlink="http://www.w3.org/1999/xlink" x="0px" y="0px"
	 viewBox="0 0 511.6 250.5" style="enable-background:new 0 0 511.6 250.5;" xml:space="preserve">
<style type="text/css">
	.st0{fill:#0A7FC2;}
	.st1{opacity:0.15;fill:#FFFFFF;}
	.st2{fill:#FFFFFF;}
</style>
<path class="st0" d="M214.3,67.4c0.1,18.4,16,33.7,35.2,33.6s34.9-15.6,34.8-34c-0.1-18.4-16-33.7-35.2-33.6
	C229.9,33.5,214.2,49,214.3,67.4z"/>
<path class="st1" d="M241.1,94.8c-4.1,0-8.1-0.4-12-1.2c5.8,4,12.8,6.4,20.4,6.3c15.8-0.1,29.2-10.6,33.4-24.5
	C274.3,86.9,258.7,94.8,241.1,94.8z"/>
<path class="st1" d="M221.8,43.9c6.9-8.2,16.1-12.3,26.9-12.3c19.1,0,34.5,14.9,34.5,33.3c0,3.5-0.5,6.8-1.6,9.9
	c-3.4,0.9-6.9,1.4-10.7,1.4C251,76.3,228.1,62.1,221.8,43.9z"/>
<image style="overflow:visible;opacity:0.64;" width="273" height="272" xlink:href="E75010EDD7D45541.png"  transform="matrix(0.24 0 0 0.24 216.48 33.5632)">
</image>
<g>
	<path class="st2" d="M285.9,66.8c0-20-16.5-36.3-36.7-36.3s-36.7,16.3-36.7,36.3c0,16.7,11.5,30.8,27.1,35l9.8,14.6l9.3-14.6l0,0
		C274.4,97.7,285.9,83.6,285.9,66.8z M249.6,108.4c-1.3,0-2.3-1-2.3-2.3c0-1.3,1-2.3,2.3-2.3c1.3,0,2.3,1,2.3,2.3
		C251.9,107.4,250.9,108.4,249.6,108.4z M249.3,99.6c-18.2,0-33.1-14.7-33.1-32.7c0-18,14.8-32.7,33.1-32.7s33.1,14.7,33.1,32.7
		C282.4,84.9,267.5,99.6,249.3,99.6z"/>
</g>
<g>
	<path class="st2" d="M247.9,68.3h-2.8c-0.4,0-0.7-0.3-0.7-0.7v-2.8c0-0.4,0.3-0.7,0.7-0.7h2.8c0.4,0,0.7,0.3,0.7,0.7v2.8
		C248.7,68,248.3,68.3,247.9,68.3z"/>
	<path class="st2" d="M253.1,68.3h-2.8c-0.4,0-0.7-0.3-0.7-0.7v-2.8c0-0.4,0.3-0.7,0.7-0.7h2.8c0.4,0,0.7,0.3,0.7,0.7v2.8
		C253.9,68,253.5,68.3,253.1,68.3z"/>
	<path class="st2" d="M247.9,73.3h-2.8c-0.4,0-0.7-0.3-0.7-0.7v-2.8c0-0.4,0.3-0.7,0.7-0.7h2.8c0.4,0,0.7,0.3,0.7,0.7v2.8
		C248.7,73,248.3,73.3,247.9,73.3z"/>
	<path class="st2" d="M253.1,73.3h-2.8c-0.4,0-0.7-0.3-0.7-0.7v-2.8c0-0.4,0.3-0.7,0.7-0.7h2.8c0.4,0,0.7,0.3,0.7,0.7v2.8
		C253.9,73,253.5,73.3,253.1,73.3z"/>
	<path class="st2" d="M265.8,59.7V47.4c0-0.4-0.3-0.7-0.7-0.7h-2.5c-0.4,0-0.7,0.3-0.7,0.7v6.8c0,0.6-0.8,1-1.2,0.5l-11-11
		c-0.3-0.3-0.7-0.3-1,0l-23.4,23.4c-0.5,0.5-0.1,1.2,0.5,1.2h6c0.4,0,0.7,0.3,0.7,0.7v16.1c0,0.4,0.3,0.7,0.7,0.7h32
		c0.4,0,0.7-0.3,0.7-0.7V69.2c0-0.4,0.3-0.7,0.7-0.7h6.2c0.6,0,1-0.8,0.5-1.2l-6.3-6l-1-1C265.9,60.1,265.8,59.9,265.8,59.7z
		 M261.3,82.5h-24.7c-0.4,0-0.7-0.3-0.7-0.7V62.4c0-0.2,0.1-0.4,0.2-0.5l12.5-12.5c0.3-0.3,0.7-0.3,1,0l12.1,12.5
		c0.1,0.1,0.2,0.3,0.2,0.5v19.4C262,82.2,261.7,82.5,261.3,82.5z"/>
	<path class="st2" d="M263.9,43.7l3.6,3.6c0.3,0.3,0.1,0.7-0.3,0.7H260c-0.4,0-0.5-0.4-0.3-0.7l3.6-3.6
		C263.5,43.5,263.8,43.5,263.9,43.7z"/>
</g>
<g>
	<path class="st2" d="M369.3,180.8v-6.1h5.8v6.1H369.3z"/>
	<path class="st2" d="M49.6,180.8v-17.5H33.2v17.5h-6.2v-40.4h6.2V158h16.4v-17.6h6.2v40.4H49.6z"/>
	<path class="st2" d="M90.2,177.5c-0.6,0.6-1.2,1.1-1.9,1.5c-0.7,0.5-1.5,0.8-2.5,1.2c-1,0.3-2,0.6-3.3,0.7
		c-1.2,0.2-2.7,0.2-4.3,0.2c-1.6,0-3.1-0.1-4.3-0.2c-1.2-0.2-2.3-0.4-3.3-0.7c-1-0.3-1.8-0.7-2.5-1.2s-1.3-1-1.9-1.5
		c-0.6-0.6-1.2-1.4-1.6-2.4c-0.4-1-0.8-2.1-1.1-3.5c-0.3-1.4-0.5-2.9-0.6-4.7c-0.1-1.8-0.2-3.9-0.2-6.2c0-2.3,0.1-4.4,0.2-6.2
		c0.1-1.8,0.3-3.4,0.6-4.7c0.3-1.4,0.6-2.5,1.1-3.5c0.4-1,1-1.8,1.6-2.4c0.6-0.6,1.2-1.1,1.9-1.5s1.5-0.8,2.5-1.1
		c1-0.3,2-0.6,3.3-0.7c1.2-0.2,2.7-0.3,4.3-0.3c1.6,0,3,0.1,4.3,0.3c1.2,0.2,2.3,0.4,3.3,0.7c1,0.3,1.8,0.7,2.5,1.1
		c0.7,0.5,1.3,1,1.9,1.5c0.6,0.6,1.2,1.4,1.6,2.4c0.4,1,0.8,2.1,1.1,3.5c0.3,1.4,0.5,2.9,0.6,4.7c0.1,1.8,0.2,3.9,0.2,6.2
		c0,2.3-0.1,4.4-0.2,6.2c-0.1,1.8-0.3,3.4-0.6,4.7c-0.3,1.4-0.6,2.5-1.1,3.5C91.4,176,90.8,176.8,90.2,177.5z M85.6,173.3
		c0.3-0.4,0.5-0.8,0.7-1.3c0.2-0.5,0.4-1.3,0.5-2.2c0.1-0.9,0.2-2.1,0.3-3.6c0.1-1.5,0.1-3.3,0.1-5.5c0-2.2,0-4.1-0.1-5.5
		c-0.1-1.5-0.2-2.7-0.3-3.6c-0.1-0.9-0.3-1.6-0.5-2.2c-0.2-0.5-0.5-1-0.7-1.3c-0.6-0.8-1.5-1.5-2.7-1.9c-1.1-0.4-2.7-0.7-4.7-0.7
		c-2,0-3.6,0.2-4.7,0.7c-1.1,0.4-2,1.1-2.7,1.9c-0.3,0.4-0.5,0.8-0.7,1.3c-0.2,0.5-0.4,1.3-0.5,2.2c-0.1,0.9-0.2,2.1-0.3,3.6
		c-0.1,1.5-0.1,3.3-0.1,5.5c0,2.2,0,4.1,0.1,5.5c0.1,1.5,0.2,2.7,0.3,3.6c0.1,0.9,0.3,1.7,0.5,2.2c0.2,0.5,0.5,1,0.7,1.3
		c0.6,0.8,1.5,1.5,2.7,1.9c1.1,0.4,2.7,0.7,4.7,0.7c2,0,3.5-0.2,4.7-0.7C84.1,174.8,85,174.1,85.6,173.3z"/>
	<path class="st2" d="M131.1,180.8v-29.5l-9.9,20.5h-5l-9.6-20.2v29.3h-5.9v-40.4h6.9l11.3,23.7l11.3-23.7h6.8v40.4H131.1z"/>
	<path class="st2" d="M144.5,180.8v-40.4H169v5.3h-18.3V158h13.5v5.3h-13.5v12.3H169v5.3H144.5z"/>
	<path class="st2" d="M187,180.8l-15-47h10.8l10.5,36l11-36h10.5l-15.5,47H187z"/>
	<path class="st2" d="M242.2,180.8l-2.9-9.9h-15.7l-3,9.9h-10.6l15.6-47.2h12.4l15.1,47.2H242.2z M231.6,144.6l-5.4,17.7h10.5
		L231.6,144.6z"/>
	<path class="st2" d="M257.1,180.8v-47.2h10.1v38.6h20.3v8.7H257.1z"/>
	<path class="st2" d="M317,133.6h10.1v28.2c0,2.3-0.1,4.3-0.2,5.8c-0.1,1.6-0.4,2.9-0.6,3.9c-0.3,1.1-0.7,2-1.1,2.7
		c-0.5,0.7-1,1.5-1.7,2.2c-0.6,0.7-1.4,1.3-2.3,1.9c-0.9,0.6-1.9,1.1-3.1,1.5c-1.2,0.4-2.5,0.8-3.9,1s-3.1,0.4-4.9,0.4
		s-3.4-0.1-4.9-0.4s-2.8-0.6-3.9-1c-1.2-0.4-2.2-0.9-3.1-1.5c-0.9-0.6-1.7-1.2-2.3-1.9c-0.7-0.7-1.2-1.4-1.7-2.2
		c-0.5-0.7-0.8-1.7-1.1-2.7c-0.3-1.1-0.5-2.4-0.6-3.9c-0.1-1.6-0.2-3.5-0.2-5.8v-28.2h10.1V164c0,1.6,0.2,2.9,0.5,4
		c0.3,1.1,0.8,2,1.5,2.6s1.5,1.2,2.4,1.5s2.1,0.5,3.4,0.5c1.3,0,2.4-0.2,3.3-0.5s1.8-0.8,2.4-1.5s1.1-1.5,1.5-2.6
		c0.3-1.1,0.5-2.4,0.5-4V133.6z"/>
	<path class="st2" d="M334.7,180.8v-47.2h30.4v8.7h-20.3v10.7h14.4v8.7h-14.4v10.5h20.3v8.7H334.7z"/>
	<path class="st2" d="M409.9,168.4c-0.2,2.3-0.6,4.1-1.1,5.6c-0.5,1.4-1.2,2.6-2,3.5c-0.6,0.6-1.2,1.1-1.9,1.5
		c-0.7,0.5-1.5,0.8-2.5,1.2c-1,0.3-2,0.6-3.3,0.7c-1.2,0.2-2.7,0.2-4.3,0.2c-1.6,0-3.1-0.1-4.3-0.2c-1.2-0.2-2.3-0.4-3.3-0.7
		c-1-0.3-1.8-0.7-2.5-1.2s-1.3-1-1.9-1.5c-0.6-0.6-1.2-1.4-1.6-2.4c-0.4-1-0.8-2.1-1.1-3.5c-0.3-1.4-0.5-2.9-0.6-4.7
		c-0.1-1.8-0.2-3.9-0.2-6.2c0-2.3,0.1-4.4,0.2-6.2c0.1-1.8,0.3-3.4,0.6-4.7c0.3-1.4,0.6-2.5,1.1-3.5c0.4-1,1-1.8,1.6-2.4
		c0.6-0.6,1.2-1.1,1.9-1.5s1.5-0.8,2.5-1.1s2-0.6,3.3-0.7s2.7-0.3,4.3-0.3c1.6,0,3,0.1,4.3,0.3c1.2,0.2,2.3,0.4,3.3,0.7
		c0.9,0.3,1.8,0.7,2.5,1.1c0.7,0.5,1.3,1,1.9,1.5c0.7,0.7,1.3,1.6,1.7,2.7c0.5,1.1,0.8,2.4,1.1,4h-6.3c-0.1-0.6-0.3-1.1-0.5-1.5
		c-0.2-0.4-0.4-0.7-0.6-1c-0.6-0.8-1.5-1.5-2.7-1.9c-1.1-0.4-2.7-0.7-4.7-0.7c-2,0-3.6,0.2-4.7,0.7c-1.1,0.4-2,1.1-2.7,1.9
		c-0.3,0.4-0.5,0.8-0.7,1.3c-0.2,0.5-0.4,1.3-0.5,2.2c-0.1,0.9-0.2,2.1-0.3,3.6c-0.1,1.5-0.1,3.3-0.1,5.5c0,2.2,0,4.1,0.1,5.5
		c0.1,1.5,0.2,2.7,0.3,3.6c0.1,0.9,0.3,1.7,0.5,2.2c0.2,0.5,0.5,1,0.7,1.3c0.6,0.8,1.5,1.5,2.7,1.9c1.1,0.4,2.7,0.7,4.7,0.7
		c2,0,3.5-0.2,4.7-0.7c1.1-0.4,2-1.1,2.7-1.9c0.2-0.2,0.3-0.5,0.5-0.7c0.1-0.3,0.3-0.6,0.4-1c0.1-0.4,0.2-0.8,0.3-1.3
		c0.1-0.5,0.2-1.1,0.2-1.8H409.9z"/>
	<path class="st2" d="M442.4,177.5c-0.6,0.6-1.2,1.1-1.9,1.5c-0.7,0.5-1.5,0.8-2.5,1.2c-1,0.3-2,0.6-3.3,0.7
		c-1.2,0.2-2.7,0.2-4.3,0.2c-1.6,0-3.1-0.1-4.3-0.2c-1.2-0.2-2.3-0.4-3.3-0.7c-1-0.3-1.8-0.7-2.5-1.2s-1.3-1-1.9-1.5
		c-0.6-0.6-1.2-1.4-1.6-2.4c-0.4-1-0.8-2.1-1.1-3.5c-0.3-1.4-0.5-2.9-0.6-4.7c-0.1-1.8-0.2-3.9-0.2-6.2c0-2.3,0.1-4.4,0.2-6.2
		c0.1-1.8,0.3-3.4,0.6-4.7c0.3-1.4,0.6-2.5,1.1-3.5c0.4-1,1-1.8,1.6-2.4c0.6-0.6,1.2-1.1,1.9-1.5s1.5-0.8,2.5-1.1s2-0.6,3.3-0.7
		c1.2-0.2,2.7-0.3,4.3-0.3c1.6,0,3,0.1,4.3,0.3c1.2,0.2,2.3,0.4,3.3,0.7c0.9,0.3,1.8,0.7,2.5,1.1c0.7,0.5,1.3,1,1.9,1.5
		c0.6,0.6,1.2,1.4,1.6,2.4c0.4,1,0.8,2.1,1.1,3.5c0.3,1.4,0.5,2.9,0.6,4.7c0.1,1.8,0.2,3.9,0.2,6.2c0,2.3-0.1,4.4-0.2,6.2
		c-0.1,1.8-0.3,3.4-0.6,4.7c-0.3,1.4-0.6,2.5-1.1,3.5C443.5,176,443,176.8,442.4,177.5z M437.8,173.3c0.3-0.4,0.5-0.8,0.7-1.3
		c0.2-0.5,0.4-1.3,0.5-2.2c0.1-0.9,0.2-2.1,0.3-3.6c0.1-1.5,0.1-3.3,0.1-5.5c0-2.2,0-4.1-0.1-5.5c-0.1-1.5-0.2-2.7-0.3-3.6
		c-0.1-0.9-0.3-1.6-0.5-2.2c-0.2-0.5-0.5-1-0.7-1.3c-0.6-0.8-1.5-1.5-2.7-1.9c-1.1-0.4-2.7-0.7-4.7-0.7c-2,0-3.6,0.2-4.7,0.7
		c-1.1,0.4-2,1.1-2.7,1.9c-0.3,0.4-0.5,0.8-0.7,1.3c-0.2,0.5-0.4,1.3-0.5,2.2c-0.1,0.9-0.2,2.1-0.3,3.6c-0.1,1.5-0.1,3.3-0.1,5.5
		c0,2.2,0,4.1,0.1,5.5c0.1,1.5,0.2,2.7,0.3,3.6c0.1,0.9,0.3,1.7,0.5,2.2c0.2,0.5,0.5,1,0.7,1.3c0.6,0.8,1.5,1.5,2.7,1.9
		c1.1,0.4,2.7,0.7,4.7,0.7c2,0,3.5-0.2,4.7-0.7C436.2,174.8,437.1,174.1,437.8,173.3z"/>
	<path class="st2" d="M482.2,181.4v-29.5l-9.9,20.5h-5l-9.6-20.2v29.3h-5.9V141h6.9l11.3,23.7l11.3-23.7h6.8v40.4H482.2z"/>
</g>
<g>
	<path class="st2" d="M363.2,196.2"/>
	<path class="st2" d="M47.8,195.7v6.7h8.6v1.7h-8.6v8.4h-1.7V194h15.1v1.7H47.8z"/>
	<path class="st2" d="M65.2,212.5v-12.8h1.7v12.8H65.2z"/>
	<path class="st2" d="M84.2,212.5l-9-10.3v10.3h-1.7v-12.8h1.7l9,10.3v-10.3h1.7v12.8H84.2z"/>
	<path class="st2" d="M98.7,212.5h-7.2v-12.8h7.2c1.6,0,2.8,0.2,4,1.3c1.5,1.3,2.3,3.3,2.3,5.2C105,210,102.5,212.5,98.7,212.5z
		 M101.9,202.5c-0.9-0.9-1.8-1.1-3.1-1.1h-5.6v9.4h5.5c2.9,0,4.6-1.8,4.6-4.6C103.3,204.8,102.8,203.5,101.9,202.5z"/>
	<path class="st2" d="M125.7,204.5v8.1H124v-8.1l-8.4-10.4h2.2l7.1,8.8l7-8.8h2.1L125.7,204.5z"/>
	<path class="st2" d="M143.5,213c-4.1,0-7.9-2.6-7.9-7c0-4.2,3.9-6.8,7.8-6.8c4.1,0,8,2.6,8,7C151.4,210.7,147.5,213,143.5,213z
		 M143.4,201c-3,0-6.1,1.8-6.1,5.1c0,3.5,3.1,5.2,6.2,5.2c3.1,0,6.2-1.7,6.2-5.1C149.7,202.8,146.5,201,143.4,201z"/>
	<path class="st2" d="M162.5,212.9c-3.6,0-6.2-1.4-6.2-5.3v-7.8h1.7v7.8c0,2.9,2,3.7,4.6,3.7c2.5,0,4.5-0.8,4.5-3.7v-7.8h1.7v7.8
		C168.7,211.4,166,212.9,162.5,212.9z"/>
	<path class="st2" d="M185.8,212.5l-3.7-5.2h-5.7v5.2h-1.7v-12.8h8c2.5,0,4.9,1,4.9,3.8c0,2.1-1.5,3.4-3.5,3.7l3.8,5.3H185.8z
		 M182.7,201.4h-6.3v4.3h6.3c1.5,0,3.2-0.3,3.2-2.2C185.9,201.7,184.2,201.4,182.7,201.4z"/>
	<path class="st2" d="M216.4,212.5v-8.8h-13v8.8h-1.7V194h1.7v8.1h13V194h1.7v18.5H216.4z"/>
	<path class="st2" d="M231.3,213c-4.1,0-7.9-2.6-7.9-7c0-4.2,3.9-6.8,7.8-6.8c4.1,0,8,2.6,8,7C239.2,210.7,235.4,213,231.3,213z
		 M231.3,201c-3,0-6.1,1.8-6.1,5.1c0,3.5,3.1,5.2,6.2,5.2c3.1,0,6.2-1.7,6.2-5.1C237.5,202.8,234.4,201,231.3,201z"/>
	<path class="st2" d="M256.7,212.5v-9.8l-5.4,8.1l-5.4-8.1v9.8h-1.7v-12.8h1.7l5.3,8.1l5.4-8.1h1.7v12.8H256.7z"/>
	<path class="st2" d="M264.2,212.5v-12.8h11.3v1.7h-9.6v3.7h5.5v1.7h-5.5v4h9.9v1.7H264.2z"/>
	<path class="st2" d="M282,203.2c-0.1,0.1-0.5,0.3-0.6,0.3c-0.2,0-0.4-0.2-0.4-0.5c0-0.2,0.3-0.3,0.4-0.4c0.7-0.5,1.5-1.4,1.5-2.3
		c0-0.5-0.4-0.6-0.8-0.6c-0.9,0-1.5-0.7-1.5-1.6c0-0.7,0.7-1.3,1.4-1.3c1.3,0,2.1,1.3,2.1,2.5C284.2,201.4,283.2,202.3,282,203.2z"
		/>
	<path class="st2" d="M295.6,213c-1.4,0-2.9-0.2-4.2-0.6c-1.5-0.4-2.3-0.8-3.6-1.7l0.8-1.5c0.3,0.2,0.6,0.4,0.9,0.6
		c1.7,1.1,4,1.5,6,1.5c1.5,0,4.5-0.3,4.5-2.4c0-1.6-1.6-2.1-3-2.2c-1.3,0-2.6-0.1-3.9-0.1c-2.1,0-4.4-1.1-4.4-3.6
		c0-3,3.2-3.9,5.6-3.9c2.2,0,4.7,0.5,6.6,1.8l-0.8,1.5c-2.2-1.3-3.2-1.6-5.7-1.6c-1.3,0-4,0.3-4,2.1c0,1.4,1.5,1.9,2.6,1.9
		c1.2,0,2.4,0.1,3.6,0.1c2.4,0,5,1.1,5,3.9C301.7,212.1,298.2,213,295.6,213z"/>
	<path class="st2" d="M321.1,195.7v16.9h-1.7v-16.9h-7.1V194h15.8v1.7H321.1z"/>
	<path class="st2" d="M343.1,212.5l-3.7-5.2h-5.7v5.2H332v-12.8h8c2.5,0,4.9,1,4.9,3.8c0,2.1-1.5,3.4-3.5,3.7l3.8,5.3H343.1z
		 M340,201.4h-6.3v4.3h6.3c1.5,0,3.2-0.3,3.2-2.2C343.2,201.7,341.5,201.4,340,201.4z"/>
	<path class="st2" d="M356.3,212.9c-3.6,0-6.2-1.4-6.2-5.3v-7.8h1.7v7.8c0,2.9,2,3.7,4.6,3.7c2.5,0,4.5-0.8,4.5-3.7v-7.8h1.7v7.8
		C362.5,211.4,359.9,212.9,356.3,212.9z"/>
	<path class="st2" d="M368.3,212.5v-12.8h11.3v1.7H370v3.7h5.5v1.7H370v4h9.9v1.7H368.3z"/>
	<path class="st2" d="M401,212.5h-1.6l-8.9-18.5h1.8l8,16.4l8.1-16.4h1.9L401,212.5z"/>
	<path class="st2" d="M424.5,212.5l-1.8-3.2h-8.9l-1.8,3.2h-1.8l7.3-12.8h1.5l7.2,12.8H424.5z M418.3,201.5l-3.5,6.2h7L418.3,201.5z
		"/>
	<path class="st2" d="M429,212.5v-12.8h1.7v11.1h8.4v1.7H429z"/>
	<path class="st2" d="M449.3,212.9c-3.6,0-6.2-1.4-6.2-5.3v-7.8h1.7v7.8c0,2.9,2,3.7,4.6,3.7c2.5,0,4.5-0.8,4.5-3.7v-7.8h1.7v7.8
		C455.5,211.4,452.9,212.9,449.3,212.9z"/>
	<path class="st2" d="M461.3,212.5v-12.8h11.3v1.7H463v3.7h5.5v1.7H463v4h9.9v1.7H461.3z"/>
</g>
</svg>
