<?xml version="1.0" encoding="utf-8"?>
<!-- Generator: Adobe Illustrator 22.1.0, SVG Export Plug-In . SVG Version: 6.00 Build 0)  -->
<svg version="1.1" id="Layer_1" xmlns="http://www.w3.org/2000/svg" xmlns:xlink="http://www.w3.org/1999/xlink" x="0px" y="0px"
	 viewBox="0 0 612 126" style="enable-background:new 0 0 612 126;" xml:space="preserve">
<style type="text/css">
	.st0{fill:#1080C3;}
	.st1{opacity:0.15;}
	.st2{clip-path:url(#SVGID_2_);fill:#FFFFFF;}
	.st3{clip-path:url(#SVGID_4_);fill:#FFFFFF;}
	.st4{opacity:0.64;}
	.st5{clip-path:url(#SVGID_6_);}
	.st6{clip-path:url(#SVGID_8_);}
	.st7{fill:#FFFFFF;}
</style>
<path class="st0" d="M15.9,55.8c0.1,22.9,20,42,43.8,41.8c23.9-0.1,43.5-19.4,43.3-42.3c-0.1-22.9-20-42-43.8-41.8
	C35.3,13.6,15.7,32.9,15.9,55.8"/>
<g class="st1">
	<g>
		<defs>
			<rect id="SVGID_1_" x="34.3" y="65.8" width="66.9" height="30.6"/>
		</defs>
		<clipPath id="SVGID_2_">
			<use xlink:href="#SVGID_1_"  style="overflow:visible;"/>
		</clipPath>
		<path class="st2" d="M49.2,89.9c-5.1,0-10.1-0.5-14.9-1.5c7.2,5,16,7.9,25.3,7.9c19.6-0.1,36.4-13.2,41.6-30.6
			C90.6,80.1,71.2,89.9,49.2,89.9"/>
	</g>
</g>
<g class="st1">
	<g>
		<defs>
			<rect id="SVGID_3_" x="25.2" y="11.2" width="76.5" height="55.6"/>
		</defs>
		<clipPath id="SVGID_4_">
			<use xlink:href="#SVGID_3_"  style="overflow:visible;"/>
		</clipPath>
		<path class="st3" d="M25.2,26.5c8.5-10.2,20.1-15.3,33.5-15.3c23.8,0,43,18.5,43,41.5c0,4.3-0.7,8.5-1.9,12.4
			c-4.2,1.2-8.6,1.8-13.3,1.8C61.7,66.9,33.1,49.1,25.2,26.5"/>
	</g>
</g>
<g class="st4">
	<g>
		<defs>
			<rect id="SVGID_5_" x="16.2" y="12.9" width="86.6" height="84.8"/>
		</defs>
		<clipPath id="SVGID_6_">
			<use xlink:href="#SVGID_5_"  style="overflow:visible;"/>
		</clipPath>
		<g class="st5">
			<defs>
				<path id="SVGID_7_" d="M55.5,13.4c-9.5,0.7-18.6,4.5-25.7,11.1c-1.1,1-2.1,2.1-3.1,3.3c-7.1,8.5-10.1,19.3-9.2,29.8
					c0.1,1.8,0.4,3.6,0.8,5.4c1.9,9.1,6.8,17.7,14.5,24.1c8,6.7,17.9,10,27.7,10c1.1,0,2.1,0,3.2-0.1c10.9-0.8,21.4-5.7,28.8-14.4
					c0.8-0.9,1.5-1.8,2.1-2.8c5.6-8,7.9-17.6,7.1-27c-0.9-11-6.1-21.8-15.3-29.5c-7.4-6.2-16.4-9.4-25.4-9.9c-0.8,0-1.5-0.1-2.3-0.1
					C57.6,13.3,56.5,13.4,55.5,13.4"/>
			</defs>
			<clipPath id="SVGID_8_">
				<use xlink:href="#SVGID_7_"  style="overflow:visible;"/>
			</clipPath>
			<g class="st6">
				<defs>
					<rect id="SVGID_9_" x="16.2" y="12.9" width="86.6" height="84.8"/>
				</defs>
				<clipPath id="SVGID_10_">
					<use xlink:href="#SVGID_9_"  style="overflow:visible;"/>
				</clipPath>
				<g transform="matrix(1 0 0 1 0 0)" style="clip-path:url(#SVGID_10_);">
					
						<image style="overflow:visible;" width="99" height="97" xlink:href="3494849826B090D.jpg"  transform="matrix(0.8746 0 0 -0.8744 16.1901 97.7253)">
					</image>
				</g>
			</g>
		</g>
	</g>
</g>
<path class="st7" d="M105.1,55.1c0-24.9-20.5-45.2-45.7-45.2S13.8,30.2,13.8,55.1c0,20.8,14.3,38.4,33.7,43.6l12.2,18.2l11.6-18.2h0
	C90.8,93.5,105.1,75.9,105.1,55.1 M59.9,106.9c-1.6,0-2.9-1.3-2.9-2.8c0-1.6,1.3-2.8,2.9-2.8c1.6,0,2.9,1.3,2.9,2.8
	C62.8,105.6,61.5,106.9,59.9,106.9 M59.5,95.8c-22.7,0-41.2-18.3-41.2-40.7c0-22.5,18.5-40.7,41.2-40.7s41.2,18.3,41.2,40.7
	C100.6,77.5,82.2,95.8,59.5,95.8"/>
<path class="st7" d="M56.1,57L56.1,57c-1.5,0-2.6-1.2-2.6-2.6c0-1.5,1.2-2.6,2.6-2.6c1.5,0,2.6,1.2,2.6,2.6
	C58.7,55.8,57.5,57,56.1,57"/>
<path class="st7" d="M62.5,57L62.5,57c-1.5,0-2.6-1.2-2.6-2.6c0-1.5,1.2-2.6,2.6-2.6c1.5,0,2.6,1.2,2.6,2.6C65.2,55.8,64,57,62.5,57
	"/>
<path class="st7" d="M56.1,63.2L56.1,63.2c-1.5,0-2.6-1.2-2.6-2.6c0-1.5,1.2-2.6,2.6-2.6c1.5,0,2.6,1.2,2.6,2.6
	C58.7,62,57.5,63.2,56.1,63.2"/>
<path class="st7" d="M62.5,63.2L62.5,63.2c-1.5,0-2.6-1.2-2.6-2.6c0-1.5,1.2-2.6,2.6-2.6c1.5,0,2.6,1.2,2.6,2.6
	C65.2,62,64,63.2,62.5,63.2"/>
<path class="st7" d="M80,46.2V30.9c0-0.5-0.4-0.9-0.9-0.9H76c-0.5,0-0.9,0.4-0.9,0.9v8.5c0,0.8-1,1.2-1.5,0.6L59.9,26.4
	c-0.4-0.4-0.9-0.4-1.3,0L29.4,55.5c-0.6,0.6-0.2,1.5,0.6,1.5h7.5c0.5,0,0.9,0.4,0.9,0.9V78c0,0.5,0.4,0.9,0.9,0.9h39.9
	c0.5,0,0.9-0.4,0.9-0.9V58c0-0.5,0.4-0.9,0.9-0.9h7.8c0.8,0,1.2-1,0.6-1.5L81.5,48l-1.3-1.2C80.1,46.6,80,46.4,80,46.2 M74.4,74.6
	H43.7c-0.5,0-0.9-0.4-0.9-0.9V49.5c0-0.2,0.1-0.5,0.3-0.6l15.6-15.6c0.4-0.3,0.9-0.3,1.3,0L75,48.8c0.2,0.2,0.3,0.4,0.3,0.6v24.2
	C75.3,74.2,74.9,74.6,74.4,74.6"/>
<path class="st7" d="M77.7,26.2l4.5,4.5c0.3,0.3,0.1,0.9-0.4,0.9h-9c-0.4,0-0.7-0.5-0.4-0.9l4.5-4.5C77.2,26,77.5,26,77.7,26.2"/>
<polygon class="st7" points="147.6,83.3 172,83.3 170.4,95.1 132.8,95.1 132.8,32.5 147.6,32.5 "/>
<rect x="179.1" y="32.5" class="st7" width="14.8" height="62.5"/>
<path class="st7" d="M247.3,39l-6.9,8c-4.3-3.5-8.7-5.2-13.7-5.2c-5.1,0-8.4,2.2-8.4,6.1c0,4,2.3,5.6,12.1,8.7
	c11.8,3.8,18.6,8.7,18.6,20.2c0,11.6-9.2,19.8-24.8,19.8c-10.8,0-18.6-4-23.7-8.9l7.5-8.2c4.6,3.9,9.6,6.1,15.8,6.1
	c6.1,0,9.9-2.9,9.9-7.7c0-4.6-2.3-6.7-11.5-9.5c-14-4.3-19.1-10.1-19.1-19.4c0-11,9.6-18.1,22.6-18.1C235.2,31,241.8,33.8,247.3,39"
	/>
<polygon class="st7" points="296.6,43.9 281.2,43.9 281.2,95.1 266.4,95.1 266.4,43.9 250.2,43.9 250.2,32.5 298.1,32.5 "/>
<polygon class="st7" points="340.9,43.1 318.8,43.1 318.8,58.1 338.1,58.1 338.1,68.5 318.8,68.5 318.8,84.4 342.4,84.4 342.4,95.1 
	304,95.1 304,32.5 342.4,32.5 "/>
<path class="st7" d="M401.4,63.5c0,25.2-15.2,31.6-31.1,31.6h-18.8V32.5h17.4C385.6,32.5,401.4,37.7,401.4,63.5 M366.3,43.3v41.1
	h4.9c8.9,0,14.9-4.2,14.9-20.8c0-16.8-6.4-20.2-15.1-20.2H366.3z"/>
<path class="st7" d="M421.5,88.4c0,4.5-3.6,8.2-8.1,8.2c-4.6,0-8.2-3.7-8.2-8.2c0-4.4,3.6-8.1,8.2-8.1
	C417.9,80.3,421.5,84,421.5,88.4"/>
<path class="st7" d="M472.9,37.9l-7,8.4c-3.5-2.7-7-4.3-11.3-4.3c-8,0-13.6,6.4-13.6,21.8c0,15.1,5.5,21.5,13.8,21.5
	c5,0,8.6-2.3,12.3-5.1l6.6,8.5c-4.2,4.2-10.9,8-19.6,8c-17.2,0-28.6-11.6-28.6-32.9c0-20.9,12.2-32.7,28.4-32.7
	C462,31,467.7,33.4,472.9,37.9"/>
<path class="st7" d="M531.9,63.8c0,20.5-10.6,32.9-28.3,32.9c-17.6,0-28.2-12-28.2-32.9c0-20.4,10.6-32.8,28.2-32.8
	C521.4,31,531.9,42.9,531.9,63.8 M491,63.8c0,15.9,4.5,22,12.6,22c8.5,0,12.7-6.1,12.7-22c0-15.8-4.3-21.9-12.7-21.9
	C495.4,41.8,491,48,491,63.8"/>
<path class="st7" d="M602.1,95.1h-14.5l-1.1-24.5c-0.5-8.8-0.6-17.8-0.2-25.5l-9.7,43.4h-14l-10.3-43.4c0.6,9.2,0.6,17,0.3,25.7
	l-1.1,24.3h-14.4l4.7-62.5h18.7l9.4,42.4l8.8-42.4h18.8L602.1,95.1z"/>
</svg>
