<?xml version="1.0" encoding="utf-8"?>
<!-- Generator: Adobe Illustrator 22.1.0, SVG Export Plug-In . SVG Version: 6.00 Build 0)  -->
<svg version="1.1" id="Layer_1" xmlns="http://www.w3.org/2000/svg" xmlns:xlink="http://www.w3.org/1999/xlink" x="0px" y="0px"
	 viewBox="0 0 332.5 154.7" style="enable-background:new 0 0 332.5 154.7;" xml:space="preserve">
<style type="text/css">
	.st0{fill:#FFFFFF;}
	.st1{fill:#FACB11;}
</style>
<g>
	<g>
		<path class="st0" d="M182,122h-48.8l17.4-100.1h21.8l-13.9,80h27L182,122z"/>
		<path class="st0" d="M262.6,47.9c0,5.9-0.9,11.2-2.6,15.8c-1.7,4.6-4.2,8.5-7.3,11.6c-3.1,3.1-6.8,5.5-11.1,7.1
			c-4.3,1.6-9,2.4-14.1,2.4h-10.2l-6.5,37.2h-21.2L207,21.9h28.5c3.4,0,6.7,0.5,10,1.4c3.3,0.9,6.1,2.5,8.7,4.6
			c2.5,2.1,4.6,4.8,6.1,8.1C261.8,39.4,262.6,43.3,262.6,47.9z M241.9,51.1c0-3.4-0.9-6-2.6-7.9c-1.7-1.9-4.1-2.8-7.1-2.8H225
			l-4.5,27h7.5c4.2,0,7.6-1.5,10.2-4.4C240.6,60,241.9,56.1,241.9,51.1z"/>
		<path class="st0" d="M324.5,40.5h-18.4L291.8,122h-21.5l14.3-81.5h-18.4l3.3-18.5h58.2L324.5,40.5z"/>
	</g>
</g>
<g>
	<path class="st0" d="M129.3,140.9h-2.5l2.4-13.7h2.5L129.3,140.9z"/>
	<path class="st0" d="M134.4,140.9h-2.5l1.7-9.6h2.5L134.4,140.9z M133.9,128.8c0-0.2,0-0.4,0.1-0.6c0.1-0.2,0.2-0.3,0.3-0.4
		c0.1-0.1,0.3-0.2,0.4-0.3c0.2-0.1,0.4-0.1,0.6-0.1c0.2,0,0.4,0,0.5,0.1c0.2,0.1,0.3,0.1,0.4,0.3c0.1,0.1,0.2,0.2,0.3,0.4
		c0.1,0.2,0.1,0.3,0.1,0.5c0,0.2,0,0.4-0.1,0.6c-0.1,0.2-0.2,0.3-0.3,0.4c-0.1,0.1-0.3,0.2-0.4,0.3c-0.2,0.1-0.4,0.1-0.5,0.1
		c-0.2,0-0.4,0-0.5-0.1c-0.2-0.1-0.3-0.1-0.4-0.3c-0.1-0.1-0.2-0.3-0.3-0.4C133.9,129.2,133.9,129,133.9,128.8z"/>
	<path class="st0" d="M142.5,138.2c0-0.2,0-0.4-0.1-0.5c-0.1-0.1-0.2-0.2-0.4-0.3c-0.2-0.1-0.4-0.2-0.6-0.2
		c-0.2-0.1-0.4-0.1-0.5-0.1c-0.4-0.1-0.7-0.2-1.1-0.4c-0.4-0.1-0.7-0.3-1-0.6c-0.3-0.2-0.5-0.5-0.7-0.8c-0.2-0.3-0.3-0.7-0.2-1.1
		c0-0.5,0.2-1,0.4-1.4c0.2-0.4,0.6-0.7,0.9-1c0.4-0.3,0.8-0.4,1.3-0.6c0.5-0.1,0.9-0.2,1.4-0.2c0.5,0,0.9,0.1,1.4,0.2
		c0.4,0.1,0.8,0.3,1.2,0.6c0.3,0.3,0.6,0.6,0.8,1c0.2,0.4,0.3,0.8,0.3,1.4l-2.5,0c0-0.4-0.1-0.7-0.3-0.9s-0.5-0.3-0.9-0.3
		c-0.2,0-0.3,0-0.5,0.1c-0.2,0-0.3,0.1-0.5,0.2c-0.1,0.1-0.3,0.2-0.4,0.3c-0.1,0.1-0.2,0.3-0.2,0.5c0,0.2,0,0.4,0.1,0.5
		c0.1,0.1,0.2,0.2,0.4,0.3c0.2,0.1,0.3,0.1,0.5,0.2c0.2,0,0.3,0.1,0.5,0.1c0.4,0.1,0.8,0.2,1.2,0.4c0.4,0.1,0.7,0.3,1,0.5
		c0.3,0.2,0.6,0.5,0.7,0.8c0.2,0.3,0.3,0.7,0.2,1.2c0,0.5-0.2,1-0.4,1.4c-0.3,0.4-0.6,0.7-1,0.9c-0.4,0.2-0.9,0.4-1.3,0.5
		c-0.5,0.1-1,0.2-1.4,0.2c-0.5,0-1-0.1-1.4-0.2c-0.4-0.1-0.8-0.4-1.2-0.6c-0.3-0.3-0.6-0.6-0.8-1c-0.2-0.4-0.3-0.9-0.3-1.4l2.4,0
		c0,0.5,0.1,0.8,0.4,1s0.6,0.4,1.1,0.4c0.2,0,0.4,0,0.5-0.1c0.2,0,0.4-0.1,0.5-0.2c0.2-0.1,0.3-0.2,0.4-0.3
		C142.4,138.5,142.5,138.4,142.5,138.2z"/>
	<path class="st0" d="M151.6,128.9l-0.4,2.4h1.6l-0.3,1.9h-1.6L150,138c0,0.3,0,0.5,0.1,0.7s0.3,0.2,0.6,0.3c0.1,0,0.3,0,0.4,0
		c0.1,0,0.3,0,0.4,0l-0.2,2c-0.2,0.1-0.5,0.1-0.7,0.2c-0.2,0-0.5,0-0.7,0c-0.4,0-0.8-0.1-1.1-0.2c-0.3-0.1-0.6-0.3-0.8-0.6
		c-0.2-0.2-0.3-0.5-0.4-0.9c-0.1-0.3-0.1-0.7-0.1-1.1l0.8-5.1H147l0.3-1.9h1.4l0.4-2.4H151.6z"/>
	<path class="st0" d="M155.6,140.9H153l1.7-9.6h2.5L155.6,140.9z M155,128.8c0-0.2,0-0.4,0.1-0.6c0.1-0.2,0.2-0.3,0.3-0.4
		c0.1-0.1,0.3-0.2,0.4-0.3c0.2-0.1,0.4-0.1,0.6-0.1c0.2,0,0.4,0,0.5,0.1c0.2,0.1,0.3,0.1,0.4,0.3c0.1,0.1,0.2,0.2,0.3,0.4
		c0.1,0.2,0.1,0.3,0.1,0.5c0,0.2,0,0.4-0.1,0.6c-0.1,0.2-0.2,0.3-0.3,0.4c-0.1,0.1-0.3,0.2-0.4,0.3c-0.2,0.1-0.4,0.1-0.5,0.1
		c-0.2,0-0.4,0-0.5-0.1c-0.2-0.1-0.3-0.1-0.4-0.3c-0.1-0.1-0.2-0.3-0.3-0.4C155,129.2,155,129,155,128.8z"/>
	<path class="st0" d="M162,131.2l-0.2,1.1c0.4-0.4,0.8-0.8,1.3-1c0.5-0.2,1-0.3,1.6-0.3c0.5,0,1,0.1,1.3,0.3
		c0.3,0.2,0.6,0.5,0.8,0.8c0.2,0.3,0.3,0.7,0.4,1.2c0.1,0.4,0.1,0.9,0,1.4l-1,6.1h-2.5l1-6.2c0-0.2,0-0.4,0-0.6
		c0-0.2-0.1-0.4-0.2-0.5s-0.2-0.2-0.4-0.3c-0.2-0.1-0.4-0.1-0.6-0.1c-0.4,0-0.7,0.1-1,0.2c-0.3,0.2-0.5,0.4-0.8,0.7l-1.2,6.8H158
		l1.7-9.6L162,131.2z"/>
	<path class="st0" d="M168.9,136.1c0-0.4,0.1-0.8,0.2-1.2c0.1-0.4,0.3-0.8,0.4-1.2c0.2-0.4,0.4-0.7,0.6-1c0.2-0.3,0.5-0.6,0.8-0.8
		c0.3-0.2,0.7-0.4,1.1-0.5c0.4-0.1,0.8-0.2,1.3-0.2c0.5,0,0.9,0.1,1.3,0.3c0.4,0.2,0.7,0.5,1,0.8l0.3-0.9l2.3,0l-1.6,9.3
		c-0.1,0.7-0.3,1.2-0.6,1.8c-0.3,0.5-0.7,1-1.1,1.3c-0.4,0.4-1,0.6-1.5,0.8c-0.6,0.2-1.2,0.3-1.9,0.3c-0.3,0-0.6,0-1-0.1
		c-0.3-0.1-0.6-0.2-0.9-0.3c-0.3-0.1-0.6-0.3-0.8-0.5c-0.3-0.2-0.5-0.4-0.7-0.7l1.2-1.5c0.3,0.3,0.6,0.6,0.9,0.8
		c0.3,0.2,0.7,0.3,1.2,0.3c0.3,0,0.7,0,0.9-0.1c0.3-0.1,0.5-0.2,0.8-0.4c0.2-0.2,0.4-0.4,0.6-0.7c0.2-0.3,0.3-0.6,0.3-0.9l0.1-0.5
		c-0.3,0.3-0.7,0.6-1.1,0.8c-0.4,0.2-0.8,0.3-1.3,0.3c-0.4,0-0.8-0.1-1.1-0.2c-0.3-0.1-0.6-0.3-0.9-0.6c-0.2-0.2-0.4-0.5-0.6-0.8
		c-0.2-0.3-0.3-0.6-0.4-1c-0.1-0.4-0.1-0.7-0.2-1.1s0-0.7,0-1.1L168.9,136.1z M171.4,136.2c0,0.3,0,0.6,0,0.9c0,0.3,0,0.6,0.1,0.9
		c0.1,0.3,0.2,0.5,0.4,0.7c0.2,0.2,0.5,0.3,0.8,0.3c0.4,0,0.7-0.1,1-0.2c0.3-0.2,0.6-0.4,0.8-0.7l0.7-4.1c-0.1-0.3-0.3-0.5-0.6-0.7
		c-0.2-0.1-0.5-0.2-0.9-0.2c-0.4,0-0.7,0.1-1,0.2c-0.3,0.2-0.5,0.4-0.7,0.7c-0.2,0.3-0.4,0.6-0.5,0.9c-0.1,0.3-0.2,0.7-0.2,1
		L171.4,136.2z"/>
	<path class="st0" d="M188.2,136.1c0,0.4-0.1,0.8-0.2,1.2c-0.1,0.4-0.2,0.8-0.4,1.2c-0.2,0.4-0.4,0.7-0.6,1
		c-0.2,0.3-0.5,0.6-0.8,0.8c-0.3,0.2-0.6,0.4-1,0.6c-0.4,0.1-0.8,0.2-1.3,0.2c-0.4,0-0.9-0.1-1.2-0.3s-0.7-0.4-1-0.8l-0.9,4.6h-2.5
		l2.3-13.3l2.3,0l-0.2,1c0.3-0.4,0.7-0.7,1.1-0.9s0.9-0.3,1.4-0.3c0.4,0,0.8,0.1,1.2,0.2c0.3,0.1,0.6,0.3,0.8,0.6
		c0.2,0.2,0.4,0.5,0.6,0.8c0.1,0.3,0.3,0.6,0.3,1c0.1,0.4,0.1,0.7,0.1,1.1c0,0.4,0,0.7,0,1.1L188.2,136.1z M185.7,135.9
		c0-0.3,0-0.5,0-0.9s0-0.6-0.1-0.9c-0.1-0.3-0.2-0.5-0.4-0.7c-0.2-0.2-0.5-0.3-0.8-0.3c-0.4,0-0.7,0.1-1,0.2
		c-0.3,0.2-0.6,0.4-0.8,0.7l-0.7,4c0.1,0.3,0.3,0.6,0.5,0.7c0.2,0.1,0.5,0.2,0.9,0.2c0.4,0,0.7-0.1,1-0.2c0.3-0.2,0.5-0.4,0.7-0.7
		c0.2-0.3,0.3-0.6,0.4-0.9c0.1-0.3,0.2-0.7,0.2-1L185.7,135.9z"/>
	<path class="st0" d="M189.9,136c0.1-0.7,0.2-1.3,0.5-1.9c0.3-0.6,0.6-1.1,1-1.6c0.4-0.5,0.9-0.8,1.5-1.1c0.6-0.3,1.3-0.4,2-0.4
		c0.7,0,1.3,0.2,1.8,0.4c0.5,0.3,0.9,0.6,1.2,1.1c0.3,0.4,0.5,1,0.7,1.5c0.1,0.6,0.2,1.2,0.1,1.8l0,0.2c-0.1,0.7-0.3,1.3-0.5,1.9
		c-0.3,0.6-0.6,1.1-1.1,1.6c-0.4,0.4-0.9,0.8-1.5,1.1c-0.6,0.3-1.2,0.4-2,0.4c-0.7,0-1.3-0.2-1.8-0.4c-0.5-0.3-0.9-0.6-1.2-1.1
		c-0.3-0.4-0.5-0.9-0.7-1.5c-0.1-0.6-0.2-1.2-0.1-1.8L189.9,136z M192.3,136.2c0,0.3,0,0.6,0,0.9c0,0.3,0,0.6,0.1,0.9
		c0.1,0.3,0.2,0.5,0.4,0.7c0.2,0.2,0.5,0.3,0.9,0.3c0.4,0,0.7-0.1,1-0.2c0.3-0.2,0.5-0.4,0.7-0.7c0.2-0.3,0.3-0.6,0.5-0.9
		c0.1-0.3,0.2-0.7,0.2-1l0-0.2c0-0.2,0-0.4,0-0.6c0-0.2,0-0.4,0-0.6c0-0.2-0.1-0.4-0.1-0.6c-0.1-0.2-0.1-0.4-0.3-0.5
		c-0.1-0.1-0.3-0.3-0.4-0.4c-0.2-0.1-0.4-0.1-0.6-0.2c-0.4,0-0.7,0.1-1,0.2c-0.3,0.2-0.5,0.4-0.7,0.7c-0.2,0.3-0.3,0.6-0.5,0.9
		c-0.1,0.4-0.2,0.7-0.2,1L192.3,136.2z"/>
	<path class="st0" d="M208.5,137.4l2.3-6.1h2.5l-4.1,9.6h-2.1l-0.7-6l-2.8,6h-2.1l-0.7-9.6h2.4l0.2,6.1l2.8-6.1h1.8L208.5,137.4z"/>
	<path class="st0" d="M217.8,141.1c-0.7,0-1.3-0.1-1.8-0.4c-0.5-0.2-1-0.6-1.3-1s-0.6-0.9-0.8-1.5s-0.2-1.2-0.2-1.8l0-0.4
		c0.1-0.7,0.2-1.3,0.5-1.9c0.3-0.6,0.6-1.1,1-1.6c0.4-0.5,0.9-0.8,1.5-1.1c0.6-0.3,1.2-0.4,2-0.4c0.7,0,1.3,0.2,1.7,0.4
		c0.5,0.3,0.9,0.6,1.1,1.1c0.3,0.4,0.5,0.9,0.6,1.5c0.1,0.6,0.1,1.2,0,1.8l-0.2,1.1h-5.9c0,0.3,0,0.6,0.1,0.8
		c0.1,0.2,0.2,0.5,0.3,0.7c0.1,0.2,0.3,0.3,0.6,0.4c0.2,0.1,0.5,0.2,0.8,0.2c0.5,0,0.9-0.1,1.3-0.3c0.4-0.2,0.8-0.5,1.1-0.8l1.1,1.4
		c-0.2,0.3-0.4,0.6-0.7,0.8c-0.3,0.2-0.6,0.4-0.9,0.5c-0.3,0.1-0.7,0.2-1,0.3C218.5,141,218.1,141.1,217.8,141.1z M218.7,133.1
		c-0.3,0-0.6,0-0.8,0.2c-0.2,0.1-0.4,0.3-0.6,0.5c-0.2,0.2-0.3,0.4-0.5,0.7c-0.1,0.2-0.2,0.5-0.3,0.7h3.5l0.1-0.2c0-0.2,0-0.5,0-0.7
		s-0.1-0.4-0.2-0.6c-0.1-0.2-0.2-0.3-0.4-0.4C219.2,133.2,219,133.2,218.7,133.1z"/>
	<path class="st0" d="M229.9,133.7c-0.1,0-0.3,0-0.4-0.1c-0.1,0-0.3,0-0.4,0c-0.4,0-0.8,0.1-1.2,0.2c-0.4,0.2-0.7,0.4-0.9,0.8
		l-1.1,6.3h-2.5l1.7-9.6l2.4,0l-0.2,1.2c0.1-0.2,0.3-0.4,0.4-0.5c0.2-0.2,0.3-0.3,0.5-0.4c0.2-0.1,0.4-0.2,0.6-0.3
		c0.2-0.1,0.4-0.1,0.7-0.1c0.2,0,0.3,0,0.4,0c0.1,0,0.3,0.1,0.4,0.1L229.9,133.7z"/>
	<path class="st0" d="M235.8,128.9l-0.4,2.4h1.6l-0.3,1.9H235l-0.8,4.8c0,0.3,0,0.5,0.1,0.7c0.1,0.2,0.3,0.2,0.6,0.3
		c0.1,0,0.3,0,0.4,0c0.1,0,0.3,0,0.4,0l-0.2,2c-0.2,0.1-0.5,0.1-0.7,0.2c-0.2,0-0.5,0-0.7,0c-0.4,0-0.8-0.1-1.1-0.2
		c-0.3-0.1-0.6-0.3-0.8-0.6c-0.2-0.2-0.3-0.5-0.4-0.9s-0.1-0.7-0.1-1.1l0.8-5.1h-1.4l0.3-1.9h1.4l0.4-2.4H235.8z"/>
	<path class="st0" d="M237.3,136c0.1-0.7,0.2-1.3,0.5-1.9c0.3-0.6,0.6-1.1,1-1.6c0.4-0.5,0.9-0.8,1.5-1.1c0.6-0.3,1.3-0.4,2-0.4
		c0.7,0,1.3,0.2,1.8,0.4c0.5,0.3,0.9,0.6,1.2,1.1c0.3,0.4,0.5,1,0.7,1.5c0.1,0.6,0.2,1.2,0.1,1.8l0,0.2c-0.1,0.7-0.3,1.3-0.5,1.9
		c-0.3,0.6-0.6,1.1-1.1,1.6c-0.4,0.4-0.9,0.8-1.5,1.1c-0.6,0.3-1.2,0.4-2,0.4c-0.7,0-1.3-0.2-1.8-0.4c-0.5-0.3-0.9-0.6-1.2-1.1
		c-0.3-0.4-0.5-0.9-0.7-1.5c-0.1-0.6-0.2-1.2-0.1-1.8L237.3,136z M239.8,136.2c0,0.3,0,0.6,0,0.9c0,0.3,0,0.6,0.1,0.9
		c0.1,0.3,0.2,0.5,0.4,0.7c0.2,0.2,0.5,0.3,0.9,0.3c0.4,0,0.7-0.1,1-0.2c0.3-0.2,0.5-0.4,0.7-0.7c0.2-0.3,0.3-0.6,0.5-0.9
		c0.1-0.3,0.2-0.7,0.2-1l0-0.2c0-0.2,0-0.4,0-0.6c0-0.2,0-0.4,0-0.6c0-0.2-0.1-0.4-0.1-0.6c-0.1-0.2-0.1-0.4-0.3-0.5
		c-0.1-0.1-0.3-0.3-0.4-0.4c-0.2-0.1-0.4-0.1-0.6-0.2c-0.4,0-0.7,0.1-1,0.2c-0.3,0.2-0.5,0.4-0.7,0.7c-0.2,0.3-0.3,0.6-0.5,0.9
		c-0.1,0.4-0.2,0.7-0.2,1L239.8,136.2z"/>
	<path class="st0" d="M247.8,136c0.1-0.7,0.2-1.3,0.5-1.9c0.3-0.6,0.6-1.1,1-1.6c0.4-0.5,0.9-0.8,1.5-1.1c0.6-0.3,1.3-0.4,2-0.4
		c0.7,0,1.3,0.2,1.8,0.4c0.5,0.3,0.9,0.6,1.2,1.1c0.3,0.4,0.5,1,0.7,1.5c0.1,0.6,0.2,1.2,0.1,1.8l0,0.2c-0.1,0.7-0.3,1.3-0.5,1.9
		c-0.3,0.6-0.6,1.1-1.1,1.6c-0.4,0.4-0.9,0.8-1.5,1.1c-0.6,0.3-1.2,0.4-2,0.4c-0.7,0-1.3-0.2-1.8-0.4c-0.5-0.3-0.9-0.6-1.2-1.1
		c-0.3-0.4-0.5-0.9-0.7-1.5c-0.1-0.6-0.2-1.2-0.1-1.8L247.8,136z M250.3,136.2c0,0.3,0,0.6,0,0.9c0,0.3,0,0.6,0.1,0.9
		c0.1,0.3,0.2,0.5,0.4,0.7c0.2,0.2,0.5,0.3,0.9,0.3c0.4,0,0.7-0.1,1-0.2c0.3-0.2,0.5-0.4,0.7-0.7c0.2-0.3,0.3-0.6,0.5-0.9
		c0.1-0.3,0.2-0.7,0.2-1l0-0.2c0-0.2,0-0.4,0-0.6c0-0.2,0-0.4,0-0.6c0-0.2-0.1-0.4-0.1-0.6c-0.1-0.2-0.1-0.4-0.3-0.5
		c-0.1-0.1-0.3-0.3-0.4-0.4c-0.2-0.1-0.4-0.1-0.6-0.2c-0.4,0-0.7,0.1-1,0.2c-0.3,0.2-0.5,0.4-0.7,0.7c-0.2,0.3-0.3,0.6-0.5,0.9
		c-0.1,0.4-0.2,0.7-0.2,1L250.3,136.2z"/>
	<path class="st0" d="M260.4,140.9h-2.5l2.4-13.7h2.5L260.4,140.9z"/>
	<path class="st0" d="M268.5,138.2c0-0.2,0-0.4-0.1-0.5c-0.1-0.1-0.2-0.2-0.4-0.3c-0.2-0.1-0.4-0.2-0.6-0.2
		c-0.2-0.1-0.4-0.1-0.5-0.1c-0.4-0.1-0.7-0.2-1.1-0.4c-0.4-0.1-0.7-0.3-1-0.6c-0.3-0.2-0.5-0.5-0.7-0.8c-0.2-0.3-0.3-0.7-0.2-1.1
		c0-0.5,0.1-1,0.4-1.4c0.2-0.4,0.6-0.7,0.9-1s0.8-0.4,1.3-0.6c0.5-0.1,0.9-0.2,1.4-0.2c0.5,0,0.9,0.1,1.4,0.2
		c0.4,0.1,0.8,0.3,1.2,0.6c0.3,0.3,0.6,0.6,0.8,1c0.2,0.4,0.3,0.8,0.3,1.4l-2.5,0c0-0.4-0.1-0.7-0.3-0.9c-0.2-0.2-0.5-0.3-0.9-0.3
		c-0.2,0-0.3,0-0.5,0.1c-0.2,0-0.3,0.1-0.5,0.2c-0.1,0.1-0.3,0.2-0.4,0.3c-0.1,0.1-0.2,0.3-0.2,0.5c0,0.2,0,0.4,0.1,0.5
		c0.1,0.1,0.2,0.2,0.4,0.3s0.3,0.1,0.5,0.2c0.2,0,0.3,0.1,0.5,0.1c0.4,0.1,0.8,0.2,1.2,0.4c0.4,0.1,0.7,0.3,1,0.5
		c0.3,0.2,0.6,0.5,0.7,0.8c0.2,0.3,0.3,0.7,0.2,1.2c0,0.5-0.2,1-0.4,1.4c-0.3,0.4-0.6,0.7-1,0.9c-0.4,0.2-0.9,0.4-1.3,0.5
		c-0.5,0.1-1,0.2-1.4,0.2c-0.5,0-1-0.1-1.4-0.2c-0.4-0.1-0.8-0.4-1.2-0.6c-0.3-0.3-0.6-0.6-0.8-1c-0.2-0.4-0.3-0.9-0.3-1.4l2.4,0
		c0,0.5,0.1,0.8,0.4,1c0.3,0.2,0.6,0.4,1.1,0.4c0.2,0,0.4,0,0.5-0.1c0.2,0,0.4-0.1,0.5-0.2c0.2-0.1,0.3-0.2,0.4-0.3
		C268.4,138.5,268.5,138.4,268.5,138.2z"/>
	<path class="st0" d="M272.8,139.7c0-0.2,0-0.4,0.1-0.6c0.1-0.2,0.2-0.3,0.3-0.4c0.1-0.1,0.3-0.2,0.4-0.3c0.2-0.1,0.4-0.1,0.6-0.1
		c0.2,0,0.4,0,0.6,0.1c0.2,0.1,0.3,0.2,0.5,0.3c0.1,0.1,0.2,0.3,0.3,0.4c0.1,0.2,0.1,0.4,0.1,0.6c0,0.2,0,0.4-0.1,0.6
		c-0.1,0.2-0.2,0.3-0.3,0.4c-0.1,0.1-0.3,0.2-0.4,0.3c-0.2,0.1-0.4,0.1-0.6,0.1c-0.2,0-0.4,0-0.6-0.1c-0.2-0.1-0.3-0.2-0.5-0.3
		c-0.1-0.1-0.2-0.3-0.3-0.4C272.9,140.1,272.8,139.9,272.8,139.7z"/>
	<path class="st0" d="M282.2,139c0.5,0,0.9-0.1,1.2-0.4c0.3-0.3,0.5-0.6,0.6-1.1l2.4,0c0,0.5-0.2,1-0.4,1.5
		c-0.2,0.4-0.6,0.8-0.9,1.1c-0.4,0.3-0.8,0.5-1.3,0.7s-1,0.2-1.5,0.2c-0.7,0-1.3-0.2-1.8-0.4c-0.5-0.3-0.9-0.6-1.2-1.1
		c-0.3-0.4-0.5-1-0.6-1.5c-0.1-0.6-0.1-1.2-0.1-1.8l0-0.3c0.1-0.7,0.2-1.3,0.5-1.9c0.3-0.6,0.6-1.1,1-1.6c0.4-0.5,0.9-0.8,1.5-1.1
		c0.6-0.3,1.2-0.4,1.9-0.4c0.6,0,1.1,0.1,1.5,0.3c0.4,0.2,0.8,0.5,1.1,0.8c0.3,0.3,0.5,0.7,0.7,1.2c0.2,0.5,0.2,1,0.2,1.5h-2.3
		c0-0.2,0-0.4-0.1-0.6c0-0.2-0.1-0.4-0.2-0.5c-0.1-0.2-0.2-0.3-0.4-0.4c-0.2-0.1-0.4-0.1-0.6-0.2c-0.4,0-0.7,0.1-1,0.2
		c-0.3,0.2-0.5,0.4-0.7,0.7c-0.2,0.3-0.3,0.6-0.4,0.9c-0.1,0.3-0.2,0.7-0.2,1l0,0.2c0,0.3-0.1,0.6-0.1,0.9c0,0.3,0,0.6,0.1,0.9
		c0.1,0.3,0.2,0.5,0.4,0.7C281.6,138.9,281.9,139,282.2,139z"/>
	<path class="st0" d="M288.2,136c0.1-0.7,0.2-1.3,0.5-1.9c0.3-0.6,0.6-1.1,1-1.6c0.4-0.5,0.9-0.8,1.5-1.1c0.6-0.3,1.3-0.4,2-0.4
		c0.7,0,1.3,0.2,1.8,0.4c0.5,0.3,0.9,0.6,1.2,1.1c0.3,0.4,0.5,1,0.7,1.5c0.1,0.6,0.2,1.2,0.1,1.8l0,0.2c-0.1,0.7-0.3,1.3-0.5,1.9
		c-0.3,0.6-0.6,1.1-1.1,1.6c-0.4,0.4-0.9,0.8-1.5,1.1c-0.6,0.3-1.2,0.4-2,0.4c-0.7,0-1.3-0.2-1.8-0.4c-0.5-0.3-0.9-0.6-1.2-1.1
		c-0.3-0.4-0.5-0.9-0.7-1.5c-0.1-0.6-0.2-1.2-0.1-1.8L288.2,136z M290.7,136.2c0,0.3,0,0.6,0,0.9c0,0.3,0,0.6,0.1,0.9
		c0.1,0.3,0.2,0.5,0.4,0.7c0.2,0.2,0.5,0.3,0.9,0.3c0.4,0,0.7-0.1,1-0.2c0.3-0.2,0.5-0.4,0.7-0.7c0.2-0.3,0.3-0.6,0.5-0.9
		c0.1-0.3,0.2-0.7,0.2-1l0-0.2c0-0.2,0-0.4,0-0.6c0-0.2,0-0.4,0-0.6c0-0.2-0.1-0.4-0.1-0.6c-0.1-0.2-0.1-0.4-0.3-0.5
		c-0.1-0.1-0.3-0.3-0.4-0.4c-0.2-0.1-0.4-0.1-0.6-0.2c-0.4,0-0.7,0.1-1,0.2c-0.3,0.2-0.5,0.4-0.7,0.7c-0.2,0.3-0.3,0.6-0.5,0.9
		c-0.1,0.4-0.2,0.7-0.2,1L290.7,136.2z"/>
	<path class="st0" d="M302.2,131.2l-0.2,1.1c0.4-0.4,0.8-0.7,1.3-1c0.5-0.2,1-0.3,1.6-0.3c0.2,0,0.5,0,0.7,0.1s0.5,0.1,0.7,0.3
		c0.2,0.1,0.4,0.3,0.5,0.5c0.2,0.2,0.3,0.4,0.3,0.7c0.4-0.5,0.8-0.8,1.3-1.1c0.5-0.3,1-0.4,1.7-0.4c0.5,0,1,0.1,1.3,0.3
		c0.4,0.2,0.6,0.5,0.8,0.8c0.2,0.3,0.3,0.7,0.4,1.2c0.1,0.4,0.1,0.9,0,1.4l-1,6.1h-2.5l1-6.2c0-0.2,0-0.4,0-0.6
		c0-0.2-0.1-0.4-0.1-0.5c-0.1-0.1-0.2-0.3-0.3-0.3c-0.1-0.1-0.3-0.1-0.6-0.1c-0.2,0-0.4,0-0.6,0.1c-0.2,0.1-0.3,0.1-0.5,0.2
		c-0.1,0.1-0.3,0.2-0.4,0.4c-0.1,0.1-0.2,0.3-0.3,0.4l0,0.2l-1.1,6.4h-2.5l1-6.1c0-0.2,0-0.4,0-0.6c0-0.2-0.1-0.4-0.1-0.5
		c-0.1-0.1-0.2-0.3-0.3-0.3s-0.3-0.1-0.6-0.1c-0.4,0-0.7,0.1-1,0.2c-0.3,0.2-0.5,0.4-0.8,0.7l-1.2,6.8h-2.5l1.7-9.6L302.2,131.2z"/>
</g>
<polygon class="st1" points="61,76.1 26.2,127.7 98.8,69.2 75.2,59.6 112.7,6.3 34.2,67.1 "/>
<path class="st0" d="M122.2,58.3l-12-2c-0.9-3.6-2.1-7-3.8-10.2l7.7-9.5c1.6-2,1.6-4.9-0.2-6.9l-4.8-5.4c-0.8-0.9-1.9-1.5-3-1.7
	L88.6,47.6l-6.2,10.5l18,7.4c1.3,0.5,2.3,1.8,2.5,3.2c0.2,1.4-0.3,2.8-1.5,3.8l-47.3,38.5c0.4,0.1,0.8,0.2,1.2,0.3l2,12.1
	c0.4,2.6,2.6,4.4,5.2,4.4h7.2c2.6,0,4.8-1.9,5.2-4.4l2-12.1c4.5-1.1,8.7-2.9,12.6-5.2l10.2,7.3c2.1,1.5,5,1.3,6.8-0.6l5.1-5.1
	c1.8-1.8,2.1-4.7,0.6-6.8l-7.2-10.2c2.4-3.9,4.2-8.1,5.3-12.7l12-2c2.6-0.4,4.4-2.6,4.4-5.2v-7.2C126.6,60.9,124.7,58.7,122.2,58.3z
	"/>
<path class="st0" d="M54.3,78.2L32.9,71c-1.4-0.5-2.5-1.7-2.7-3.2c-0.3-1.5,0.3-3,1.5-3.9l50.6-39.2c-1.7-0.7-3.5-1.2-5.3-1.7
	l-2-12.1c-0.4-2.6-2.6-4.4-5.2-4.4h-7.2c-2.6,0-4.8,1.9-5.2,4.4l-2,12.1c-4.6,1.1-8.8,2.9-12.7,5.3l-9.8-7c-2.1-1.5-5-1.3-6.8,0.6
	L20.8,27c-1.8,1.8-2.1,4.7-0.6,6.8l7,9.8c-2.4,3.9-4.1,8.1-5.3,12.6l-12.1,2c-2.6,0.4-4.4,2.6-4.4,5.2v7.2c0,2.6,1.9,4.8,4.4,5.2
	L22,78c0.9,3.7,2.2,7.3,4,10.6L18.4,98c-1.6,2-1.6,4.9,0.2,6.9l4.8,5.4c1.7,1.9,4.6,2.3,6.8,1l3.2-2l18.8-27.4L54.3,78.2z"/>
</svg>
