<?xml version="1.0" encoding="utf-8"?>
<!-- Generator: Adobe Illustrator 22.1.0, SVG Export Plug-In . SVG Version: 6.00 Build 0)  -->
<svg version="1.1" id="Layer_1" xmlns="http://www.w3.org/2000/svg" xmlns:xlink="http://www.w3.org/1999/xlink" x="0px" y="0px"
	 viewBox="0 0 716.7 102.5" style="enable-background:new 0 0 716.7 102.5;" xml:space="preserve">
<style type="text/css">
	.st0{fill:#FFFFFF;}
</style>
<g>
	<path class="st0" d="M254.4,28.5c0,11.7-9.8,21.8-29.3,30.2c-13,5.7-28.5,10-46.5,12.9l-8.7,20.7h-26.1l26.1-60.9h25.9l-12.3,28.6
		c9.3-1.7,17.5-4.5,24.6-8.1c10-5.2,15.2-11.2,15.5-18.1c0.2-4.4-1.5-7.3-5.4-8.7c-2.3-0.8-6.4-1.2-12.4-1.2h-73.2l11.2-15h73.7
		c10.8,0,19,1.1,24.7,3.3C250.3,15.1,254.4,20.6,254.4,28.5 M65.3,31.3L39.2,92.2H13.4l25.9-60.9H65.3z M125.2,82.7
		c-0.2,3-1.9,5.3-5,7.1c-2.9,1.6-6.2,2.4-10,2.4H82.7c-3.8,0-6.6-0.8-8.6-2.5c-1.3-1.1-2.9-3.4-4.9-7L55.2,56.8
		c1.8-0.3,5.8-1.4,12.2-3.4c6.2-1.9,10.1-3.2,11.7-3.9c9.5-4.1,14.2-9.2,14.2-15.3c0-7.1-6-10.6-18-10.6h-73l11.2-15h72.1
		c25.9,0,38.9,6.8,38.9,20.5c0,11.6-13.5,21.7-40.4,30.4l12.9,23.1H125.2z"/>
</g>
<path class="st0" d="M262.9,89.2c2.8-0.1,4.8-0.6,6-1.4c1.8-1.3,2.7-3.7,2.7-7.2V21.2c0-3.6-0.9-6-2.7-7.2c-1.1-0.8-3.1-1.3-6-1.5
	V9.4h55.4v24.8h-2.4c-1.2-7.6-3.2-13-6.1-16c-2.9-3.1-8.1-4.6-15.8-4.6c-2.9,0-4.7,0.4-5.5,1.2c-0.8,0.8-1.2,2.3-1.2,4.6v28.4
	c5.3,0.1,8.9-1.3,10.7-4.2c1.9-2.9,3.3-7.6,4.2-14h2.5v41.5h-2.5c-0.7-6.6-2-11.5-4-14.5c-2-3-5.6-4.5-10.9-4.5v28.6
	c0,3.8,0.9,6.2,2.6,7.2c1.8,1,4.5,1.5,8.1,1.4v3.1h-35.2V89.2z"/>
<path class="st0" d="M355.6,9.4v3.1c-3.8,0.2-6.3,0.9-7.6,2.2c-1.3,1.3-1.9,4.3-1.9,9v41.2c0,6.2,0.6,11.1,1.8,14.5
	c2.1,6.3,6.2,9.5,12.3,9.5c7.5,0,12.6-3.5,15.2-10.5c1.5-3.8,2.2-9.2,2.2-16.2V24.6c0-4.4-0.7-7.4-1.9-9.1c-1.3-1.7-3.8-2.7-7.6-3
	V9.4h21.5v3.1c-3.1,0.8-5.2,1.7-6.2,2.8c-1,1.1-1.5,3.6-1.5,7.6v39.3c0,10.4-2,18.5-6,24.2c-4,5.7-10.3,8.5-18.9,8.5
	c-11.2,0-18.9-4.2-23-12.7c-2.2-4.5-3.3-10.3-3.3-17.4V23.7c0-4.6-0.5-7.5-1.5-8.7c-1-1.2-3.2-2-6.6-2.5V9.4H355.6z"/>
<path class="st0" d="M393.1,89.2c3.6-0.1,6-1,7-2.6c1-1.6,1.6-4,1.6-7.2V21.3c-3-4.2-4.8-6.7-5.5-7.4c-0.7-0.7-1.7-1.2-2.9-1.4V9.4
	H414l33.6,51.3h0.5V24.6c0-4.2-0.6-7.1-1.8-8.9c-1.2-1.8-3.6-2.9-7.2-3.2V9.4h21v3.1c-3.1,0.6-5.1,1.5-6.1,2.6
	c-1,1.1-1.6,3.5-1.6,7.2v72.4h-2.7l-43-65.7H406v48.2c0,3.8,0.4,6.4,1.2,8c1.3,2.5,4,3.9,8,4.1v3.1h-22.1V89.2z"/>
<path class="st0" d="M488.5,86.5c0.6,1.1,2,1.7,4.2,1.7c5.8,0,10.5-2.6,14.3-7.7c3.7-5.2,5.6-15,5.6-29.6c0-8.7-1-16.1-3-22.4
	c-3.2-10-8.7-15.1-16.4-15.1c-2.5,0-4.2,0.7-5,2c-0.5,0.9-0.8,2.6-0.8,5.1v60.5C487.5,83.6,487.9,85.4,488.5,86.5 M463.5,89.2
	c2.4-0.2,4.2-0.6,5.3-1.3c1.9-1.2,2.9-3.5,2.9-6.8V20.6c0-3.2-0.9-5.3-2.7-6.6c-1.1-0.7-2.9-1.2-5.4-1.5V9.4h29.9
	c12.1,0,21.2,4,27.6,12.1c5.8,7.3,8.6,17.2,8.6,29.6c0,11.1-2.9,20.5-8.7,28.2c-6.5,8.7-15.4,13-26.5,13h-30.9V89.2z"/>
<path class="st0" d="M534.2,89.2c2.8-0.1,4.8-0.5,6-1.3c2-1.3,3-3.7,3-7.4V21.1c0-3.6-0.9-6-2.8-7.3c-1.2-0.8-3.2-1.2-6.1-1.4V9.4
	h34.2v3.1c-3.1,0.2-5.2,0.6-6.3,1.3c-1.9,1.2-2.9,3.7-2.9,7.3v59.5c0,3.4,0.8,5.7,2.3,6.9c1.5,1.2,3.8,1.7,6.9,1.7v3.1h-34.2V89.2z"
	/>
<path class="st0" d="M572.3,89.2c3.6-0.1,6-1,7-2.6c1.1-1.6,1.6-4,1.6-7.2V21.3c-3-4.2-4.8-6.7-5.5-7.4c-0.7-0.7-1.7-1.2-2.9-1.4
	V9.4h20.7l33.6,51.3h0.5V24.6c0-4.2-0.6-7.1-1.8-8.9c-1.2-1.8-3.6-2.9-7.2-3.2V9.4h21v3.1c-3.1,0.6-5.1,1.5-6.1,2.6
	c-1,1.1-1.5,3.5-1.5,7.2v72.4h-2.7l-43-65.7h-0.7v48.2c0,3.8,0.4,6.4,1.2,8c1.3,2.5,4,3.9,8,4.1v3.1h-22.1V89.2z"/>
<path class="st0" d="M654.2,20.7c6.5-8.6,14.8-12.9,24.9-12.9c4,0,8.1,1,12.1,2.9c4,1.9,6.5,2.8,7.5,2.8c1,0,1.9-0.5,2.5-1.4
	c0.6-0.9,1.2-2.3,1.6-4.2h2.7v28.7h-2.5c-2.4-6.2-4.7-11.1-7.2-14.8c-4.6-6.6-9.8-9.9-15.5-9.9c-6.3,0-10.9,3.4-13.8,10.3
	c-2.9,6.9-4.3,16.5-4.3,29c0,10.2,1.3,19.4,4,27.4c2.7,8,7.9,12,15.6,12c4.2,0,7-1.1,8.4-3.3c0.8-1.2,1.2-3.1,1.2-5.6v-13
	c0-3.7-0.9-6.2-2.7-7.3c-1.2-0.7-3.6-1.1-7.2-1.2v-3.1h33.5v3.1c-3.4,0.2-5.6,1-6.7,2.5c-1.1,1.5-1.6,4.4-1.6,8.7v15.6
	c-2.2,1.7-5.7,3.4-10.5,5c-4.8,1.7-10.2,2.5-16.2,2.5c-10.8,0-19.5-4.3-26-12.9c-6-8-9.1-18.1-9.1-30.2
	C644.8,39.3,647.9,29,654.2,20.7"/>
</svg>
